<svg width="88" height="84" viewBox="0 0 88 84" fill="none" xmlns="http://www.w3.org/2000/svg">
<path opacity="0.51" d="M60.9637 76.7111C44.7094 91.2365 4.01297 78.7398 8.26907 58.4528C12.5252 38.1658 10.6201 21.0841 26.5095 5.70661C42.399 -9.67092 71.381 16.9456 79.2041 23.9649C87.0272 30.9842 100.809 41.1277 60.9637 76.7111Z" fill="url(#paint0_linear)"/>
<path d="M33.6841 79.3889C11.9171 79.7946 -10.8226 43.7649 5.63433 31.187C22.0913 18.609 31.7384 4.36758 53.7891 3.02864C75.8398 1.6897 80.5012 40.8436 81.8794 51.2711C83.2576 61.6986 87.0678 78.3745 33.6841 79.3889Z" fill="url(#paint1_linear)"/>
<path d="M28.3187 31.5531H24.9073V34.4542H28.3187V42.5495H24.4506V45.4505H28.3187V53.5458H24.4506V56.4469H28.3187V66H35.0879V22H28.3187V31.5531Z" fill="white"/>
<path d="M37.989 22V66H65.5495V22H37.989ZM51.7692 35.1383C54.1266 35.1383 56.0375 37.0493 56.0375 39.4066C56.0375 41.7639 54.1266 43.6749 51.7692 43.6749C49.4119 43.6749 47.5009 41.7639 47.5009 39.4066C47.5009 37.0493 49.4119 35.1383 51.7692 35.1383ZM44.033 52.8617C44.033 48.5891 47.4966 45.1254 51.7692 45.1254C56.0419 45.1254 59.5055 48.5891 59.5055 52.8617H44.033Z" fill="white"/>
<defs>
<linearGradient id="paint0_linear" x1="23.6023" y1="41.6789" x2="93.8846" y2="43.0786" gradientUnits="userSpaceOnUse">
<stop stop-color="#00E0FF"/>
<stop offset="1" stop-color="#009BFF"/>
</linearGradient>
<linearGradient id="paint1_linear" x1="28.1036" y1="28.3773" x2="80.5338" y2="75.2433" gradientUnits="userSpaceOnUse">
<stop stop-color="#00E0FF"/>
<stop offset="1" stop-color="#009BFF"/>
</linearGradient>
</defs>
</svg>
