<svg width="88" height="84" viewBox="0 0 88 84" fill="none" xmlns="http://www.w3.org/2000/svg">
<path opacity="0.51" d="M60.9637 76.7111C44.7095 91.2365 4.01303 78.7398 8.26913 58.4528C12.5252 38.1658 10.6201 21.0841 26.5096 5.70661C42.399 -9.67092 71.3811 16.9456 79.2042 23.9649C87.0273 30.9842 100.809 41.1277 60.9637 76.7111Z" fill="url(#paint0_linear)"/>
<path d="M33.6841 79.3889C11.9171 79.7946 -10.8226 43.7649 5.63433 31.187C22.0913 18.609 31.7384 4.36758 53.7891 3.02864C75.8398 1.6897 80.5012 40.8436 81.8794 51.2711C83.2576 61.6986 87.0678 78.3745 33.6841 79.3889Z" fill="url(#paint1_linear)"/>
<path d="M41.5 22C30.7477 22 22 30.7477 22 41.5C22 52.2523 30.7477 61 41.5 61C52.2523 61 61 52.2523 61 41.5C61 30.7477 52.2523 22 41.5 22ZM51.7089 31.3886L40.4697 54.0619C40.3592 54.2861 40.1311 54.4233 39.8873 54.4233C39.8509 54.4233 39.8145 54.42 39.7775 54.4135C39.4941 54.3654 39.2763 54.136 39.2419 53.8513L38.066 44.1338L27.7752 42.4087C27.4931 42.3619 27.2754 42.1363 27.2383 41.8536C27.2013 41.5708 27.3521 41.2965 27.6115 41.1769L50.8561 30.5091C51.105 30.3941 51.4021 30.45 51.5938 30.6476C51.7856 30.8452 51.8317 31.1416 51.7089 31.3886Z" fill="white"/>
<defs>
<linearGradient id="paint0_linear" x1="23.6024" y1="41.6789" x2="93.8847" y2="43.0786" gradientUnits="userSpaceOnUse">
<stop stop-color="#00E0FF"/>
<stop offset="1" stop-color="#009BFF"/>
</linearGradient>
<linearGradient id="paint1_linear" x1="28.1036" y1="28.3773" x2="80.5338" y2="75.2433" gradientUnits="userSpaceOnUse">
<stop stop-color="#00E0FF"/>
<stop offset="1" stop-color="#009BFF"/>
</linearGradient>
</defs>
</svg>
