<svg width="88" height="84" viewBox="0 0 88 84" fill="none" xmlns="http://www.w3.org/2000/svg">
<path opacity="0.51" d="M60.9637 76.7111C44.7095 91.2365 4.01303 78.7398 8.26913 58.4528C12.5252 38.1658 10.6201 21.0841 26.5096 5.70661C42.399 -9.67092 71.3811 16.9456 79.2042 23.9649C87.0273 30.9842 100.809 41.1277 60.9637 76.7111Z" fill="url(#paint0_linear)"/>
<path d="M33.6841 79.3889C11.9171 79.7946 -10.8226 43.7649 5.63433 31.187C22.0913 18.609 31.7384 4.36758 53.7891 3.02864C75.8398 1.6897 80.5012 40.8436 81.8794 51.2711C83.2576 61.6986 87.0678 78.3745 33.6841 79.3889Z" fill="url(#paint1_linear)"/>
<path d="M41 59C42.87 59 44.4 57.47 44.4 55.6H37.6C37.6 57.47 39.13 59 41 59ZM52.0501 48.8V39.45C52.0501 34.18 48.48 29.93 43.55 28.74V27.55C43.55 26.19 42.36 25 41 25C39.64 25 38.45 26.19 38.45 27.55V28.74C33.52 29.93 29.95 34.18 29.95 39.45V48.8L26.55 52.2V53.9H55.4501V52.2L52.0501 48.8Z" fill="white"/>
<defs>
<linearGradient id="paint0_linear" x1="23.6024" y1="41.6789" x2="93.8847" y2="43.0786" gradientUnits="userSpaceOnUse">
<stop stop-color="#00E0FF"/>
<stop offset="1" stop-color="#009BFF"/>
</linearGradient>
<linearGradient id="paint1_linear" x1="28.1036" y1="28.3773" x2="80.5338" y2="75.2433" gradientUnits="userSpaceOnUse">
<stop stop-color="#00E0FF"/>
<stop offset="1" stop-color="#009BFF"/>
</linearGradient>
</defs>
</svg>
