<svg width="88" height="84" viewBox="0 0 88 84" fill="none" xmlns="http://www.w3.org/2000/svg">
<path opacity="0.51" d="M60.9637 76.7111C44.7095 91.2365 4.01303 78.7398 8.26913 58.4528C12.5252 38.1658 10.6201 21.0841 26.5096 5.70661C42.399 -9.67092 71.3811 16.9456 79.2042 23.9649C87.0273 30.9842 100.809 41.1277 60.9637 76.7111Z" fill="url(#paint0_linear)"/>
<path d="M33.6841 79.389C11.9171 79.7947 -10.8226 43.765 5.63433 31.1871C22.0913 18.6092 31.7384 4.36771 53.7891 3.02876C75.8398 1.68982 80.5012 40.8437 81.8794 51.2712C83.2576 61.6987 87.0678 78.3746 33.6841 79.389Z" fill="url(#paint1_linear)"/>
<g clip-path="url(#clip0)">
<path d="M44.6303 51.9226C44.6303 55.1366 44.6203 58.3408 44.6402 61.5548C44.6402 61.9129 44.5508 62.0001 44.1831 62.0001C41.6988 61.9807 39.2145 61.9807 36.7302 62.0001C36.3526 62.0001 36.2731 61.9033 36.2731 61.5548C36.283 55.1947 36.2731 48.8442 36.2929 42.4841C36.2929 42.0388 36.1737 41.9323 35.7265 41.942C34.6135 41.971 33.5105 41.942 32.3975 41.9614C32.1193 41.9614 31.9901 41.942 32 41.6129C32.0199 39.5509 32.0199 37.4793 32 35.4173C32 35.1269 32.0994 35.0785 32.3677 35.0785C33.4906 35.0882 34.6235 35.0688 35.7464 35.0978C36.1538 35.1075 36.3029 35.0398 36.2929 34.5848C36.2631 32.7455 36.2333 30.9062 36.2929 29.0669C36.3426 27.6148 36.6904 26.2208 37.545 24.972C38.4394 23.6458 39.7412 22.9391 41.2417 22.4938C42.7223 22.0582 44.2527 21.9904 45.783 22.0098C47.373 22.0194 48.9629 22.0194 50.5529 22.0098C50.8808 22.0098 51.0001 22.0582 51.0001 22.4163C50.9802 24.4977 50.9802 26.579 51.0001 28.6603C51.0001 29.0572 50.8609 29.0959 50.5231 29.0862C49.1617 29.0669 47.8102 29.0669 46.4488 29.0862C45.9321 29.0959 45.4253 29.1443 45.0377 29.5896C44.7396 29.9284 44.6502 30.3253 44.6402 30.7126C44.6104 32.0678 44.6402 33.4231 44.6203 34.7784C44.6203 35.1075 44.7893 35.0882 45.0178 35.0882C46.8761 35.0882 48.7244 35.0978 50.5827 35.0785C50.9504 35.0785 51.0299 35.1947 51.0001 35.5141C50.8311 37.1017 50.6622 38.699 50.5032 40.2866C50.4634 40.6932 50.4734 41.1095 50.4237 41.5257C50.3839 41.8549 50.2647 41.8742 50.0063 41.8742C48.3667 41.8645 46.727 41.8839 45.0874 41.8645C44.7197 41.8549 44.6303 41.9517 44.6303 42.3099C44.6402 45.5044 44.6303 48.7087 44.6303 51.9226Z" fill="white"/>
</g>
<defs>
<linearGradient id="paint0_linear" x1="23.6024" y1="41.6789" x2="93.8847" y2="43.0786" gradientUnits="userSpaceOnUse">
<stop stop-color="#00E0FF"/>
<stop offset="1" stop-color="#009BFF"/>
</linearGradient>
<linearGradient id="paint1_linear" x1="28.1036" y1="28.3774" x2="80.5338" y2="75.2434" gradientUnits="userSpaceOnUse">
<stop stop-color="#00E0FF"/>
<stop offset="1" stop-color="#009BFF"/>
</linearGradient>
<clipPath id="clip0">
<rect width="19" height="40" fill="white" transform="translate(32 22)"/>
</clipPath>
</defs>
</svg>
