<svg width="88" height="84" viewBox="0 0 88 84" fill="none" xmlns="http://www.w3.org/2000/svg">
<path opacity="0.51" d="M60.9637 76.7111C44.7095 91.2365 4.01303 78.7398 8.26913 58.4528C12.5252 38.1658 10.6201 21.0841 26.5096 5.70661C42.399 -9.67092 71.3811 16.9456 79.2042 23.9649C87.0273 30.9842 100.809 41.1277 60.9637 76.7111Z" fill="url(#paint0_linear)"/>
<path d="M33.6841 79.389C11.9171 79.7947 -10.8226 43.765 5.63433 31.1871C22.0913 18.6092 31.7384 4.36771 53.7891 3.02876C75.8398 1.68982 80.5012 40.8437 81.8794 51.2712C83.2576 61.6987 87.0678 78.3746 33.6841 79.389Z" fill="url(#paint1_linear)"/>
<path d="M31.8151 57.0971C31.8151 55.3416 31.7493 53.6739 31.837 52.0062C31.9029 50.8871 32.6051 50.119 33.6583 49.746C35.2602 49.1535 36.906 48.6269 38.5518 48.1441C38.859 48.0563 39.3417 48.1661 39.6051 48.3636C42.2383 50.2507 44.7398 50.2507 47.395 48.3636C47.6803 48.1661 48.2069 48.0783 48.558 48.188C50.0941 48.6488 51.6082 49.1755 53.1223 49.7021C54.4609 50.1629 55.163 51.0846 55.185 52.4889C55.2069 54.025 55.185 55.5391 55.185 57.141C47.3731 57.0971 39.6709 57.0971 31.8151 57.0971Z" fill="white"/>
<path d="M48.4043 38.7743C48.0752 40.6614 47.8119 42.6802 47.3511 44.6771C46.9561 46.3448 45.2006 47.5517 43.5109 47.5736C41.8213 47.5736 40.0219 46.3887 39.6489 44.721C39.188 42.6583 38.815 40.5737 38.6833 38.4671C38.5297 36.0752 40.3291 34.1442 42.6332 33.8589C45.3322 33.5078 47.5047 34.8464 48.163 37.2382C48.2946 37.6771 48.3166 38.1599 48.4043 38.7743Z" fill="white"/>
<path d="M37.5643 28.0223C37.5643 28.944 37.5643 29.7998 37.5643 30.8311C34.6897 30.8311 31.837 30.8311 28.8527 30.8311C28.8527 33.8154 28.8527 36.6462 28.8527 39.5647C27.8433 39.5647 26.9436 39.5647 26 39.5647C26 35.7245 26 31.9064 26 28.0223C29.7962 28.0223 33.6144 28.0223 37.5643 28.0223Z" fill="white"/>
<path d="M61 28C61 31.884 61 35.6803 61 39.5423C60.0784 39.5423 59.1787 39.5423 58.1693 39.5423C58.1693 36.7116 58.1693 33.8809 58.1693 30.8966C55.2069 30.8966 52.3323 30.8966 49.4138 30.8966C49.4138 29.8433 49.4138 28.9655 49.4138 28C53.2759 28 57.0941 28 61 28Z" fill="white"/>
<path d="M26 51.4138C26.9436 51.4138 27.8213 51.4138 28.8088 51.4138C28.8088 54.2884 28.8088 57.1191 28.8088 60.0815C31.7492 60.0815 34.5799 60.0815 37.5204 60.0815C37.5204 61.1129 37.5204 62.0345 37.5204 63C33.6803 63 29.8621 63 26.0219 63C26 59.0941 26 55.2539 26 51.4138Z" fill="white"/>
<path d="M49.3918 62.9781C49.3918 62.0565 49.3918 61.2007 49.3918 60.1693C52.2665 60.1693 55.1191 60.1693 58.0815 60.1693C58.0815 57.185 58.0815 54.3543 58.0815 51.4358C59.0909 51.4358 59.9906 51.4358 60.9561 51.4358C60.9561 55.254 60.9561 59.0722 60.9561 62.9562C57.1599 62.9781 53.3417 62.9781 49.3918 62.9781Z" fill="white"/>
<defs>
<linearGradient id="paint0_linear" x1="23.6024" y1="41.6789" x2="93.8847" y2="43.0786" gradientUnits="userSpaceOnUse">
<stop stop-color="#00E0FF"/>
<stop offset="1" stop-color="#009BFF"/>
</linearGradient>
<linearGradient id="paint1_linear" x1="28.1036" y1="28.3774" x2="80.5338" y2="75.2434" gradientUnits="userSpaceOnUse">
<stop stop-color="#00E0FF"/>
<stop offset="1" stop-color="#009BFF"/>
</linearGradient>
</defs>
</svg>
