<svg width="88" height="84" viewBox="0 0 88 84" fill="none" xmlns="http://www.w3.org/2000/svg">
<path opacity="0.51" d="M60.9637 76.7111C44.7094 91.2365 4.01297 78.7398 8.26907 58.4528C12.5252 38.1658 10.6201 21.0841 26.5095 5.70661C42.399 -9.67092 71.381 16.9456 79.2041 23.9649C87.0272 30.9842 100.809 41.1277 60.9637 76.7111Z" fill="url(#paint0_linear)"/>
<path d="M33.6841 79.389C11.9171 79.7947 -10.8226 43.765 5.63433 31.1871C22.0913 18.6092 31.7384 4.36771 53.7891 3.02876C75.8398 1.68982 80.5012 40.8437 81.8794 51.2712C83.2576 61.6987 87.0678 78.3746 33.6841 79.389Z" fill="url(#paint1_linear)"/>
<path d="M45.4999 52.2302C47.3511 52.2302 48.9353 51.5711 50.2534 50.2536C51.5712 48.9361 52.2302 47.351 52.2302 45.5V34.731C52.2302 32.8799 51.5717 31.2955 50.2534 29.9773C48.9353 28.6594 47.3511 28 45.4999 28C43.6489 28 42.0645 28.6594 40.7463 29.9773C39.4282 31.2953 38.7692 32.8799 38.7692 34.731V45.5C38.7692 47.351 39.4284 48.9361 40.7463 50.2536C42.0642 51.5711 43.6489 52.2302 45.4999 52.2302Z" fill="white"/>
<path d="M57.2152 41.8612C56.9495 41.5947 56.6334 41.4614 56.2688 41.4614C55.9045 41.4614 55.5891 41.5947 55.3223 41.8612C55.0561 42.1276 54.9229 42.443 54.9229 42.8075V45.4999C54.9229 48.0942 54.0007 50.3131 52.1567 52.157C50.3133 54.001 48.0941 54.923 45.4998 54.923C42.9056 54.923 40.6866 54.001 38.8425 52.157C36.9987 50.3136 36.0769 48.0943 36.0769 45.4999V42.8075C36.0769 42.443 35.9436 42.1276 35.6773 41.8612C35.4108 41.5947 35.0956 41.4614 34.7308 41.4614C34.366 41.4614 34.0505 41.5947 33.7841 41.8612C33.5176 42.1276 33.3844 42.443 33.3844 42.8075V45.4999C33.3844 48.5989 34.4187 51.2948 36.4868 53.5872C38.555 55.8797 41.1106 57.1942 44.1536 57.5306V60.3073H38.7691C38.4045 60.3073 38.089 60.4407 37.8226 60.7072C37.5562 60.9734 37.4229 61.289 37.4229 61.6536C37.4229 62.0176 37.5562 62.3338 37.8226 62.6001C38.089 62.8663 38.4045 63 38.7691 63H52.2302C52.5947 63 52.9106 62.8664 53.1766 62.6001C53.4434 62.3339 53.5767 62.0177 53.5767 61.6536C53.5767 61.2891 53.4434 60.9735 53.1766 60.7072C52.9107 60.4407 52.5948 60.3073 52.2302 60.3073H46.8463V57.5306C49.8888 57.1942 52.4442 55.8797 54.5126 53.5872C56.581 51.2948 57.6156 48.5989 57.6156 45.4999V42.8075C57.6156 42.4431 57.482 42.1279 57.2152 41.8612Z" fill="white"/>
<defs>
<linearGradient id="paint0_linear" x1="23.6023" y1="41.6789" x2="93.8846" y2="43.0786" gradientUnits="userSpaceOnUse">
<stop stop-color="#00E0FF"/>
<stop offset="1" stop-color="#009BFF"/>
</linearGradient>
<linearGradient id="paint1_linear" x1="28.1036" y1="28.3774" x2="80.5338" y2="75.2434" gradientUnits="userSpaceOnUse">
<stop stop-color="#00E0FF"/>
<stop offset="1" stop-color="#009BFF"/>
</linearGradient>
</defs>
</svg>
