<svg width="661" height="373" viewBox="0 0 661 373" fill="none" xmlns="http://www.w3.org/2000/svg">
<path d="M563.884 111.052H380.753V366.642H563.884V111.052Z" fill="url(#paint0_linear)"/>
<path d="M563.884 111.052H532.19V366.642H563.884V111.052Z" fill="url(#paint1_linear)"/>
<path d="M497.53 186.839L527.783 278.478V195.91L497.53 186.839Z" fill="url(#paint2_linear)"/>
<path d="M452.361 214.305L415.328 294.924V236.346L452.361 214.305Z" fill="url(#paint3_linear)"/>
<path d="M415.328 111.052H527.783L415.328 164.629V111.052Z" fill="url(#paint4_linear)"/>
<path d="M516.682 244.739L452.87 214.136L501.851 182.77L516.682 244.739Z" fill="url(#paint5_linear)"/>
<path d="M527.783 111.052L415.328 165.137L497.106 187.517L527.783 195.91V111.052Z" fill="url(#paint6_linear)"/>
<path d="M415.328 236.007L497.53 187.856L415.328 164.629V236.007Z" fill="url(#paint7_linear)"/>
<path d="M452.87 214.136L471.598 301.028L415.328 294.924L452.87 214.136Z" fill="url(#paint8_linear)"/>
<path d="M471.598 301.028L527.783 366.642L415.328 294.924L471.598 301.028Z" fill="url(#paint9_linear)"/>
<path d="M415.328 294.924V366.642L476.174 333.75L415.328 294.924Z" fill="url(#paint10_linear)"/>
<path d="M475.92 333.326L415.328 366.642H527.783L475.92 333.326Z" fill="url(#paint11_linear)"/>
<path d="M392.278 111.052V195.91H406.684V228.293H392.278V366.642H415.328V111.052H392.278Z" fill="url(#paint12_linear)"/>
<path d="M401.854 199.979H395.159V221.172H401.854V199.979Z" fill="url(#paint13_linear)"/>
<path d="M497.53 235.583L471.598 301.028L452.87 214.136L497.53 235.583Z" fill="url(#paint14_linear)"/>
<path d="M471.598 301.028L516.258 244.4L497.53 236.346L471.598 301.028Z" fill="url(#paint15_linear)"/>
<path d="M516.258 244.4L527.783 278.817V366.642L516.258 244.4Z" fill="url(#paint16_linear)"/>
<path d="M516.258 244.4L471.598 301.028L527.783 366.642L516.258 244.4Z" fill="url(#paint17_linear)"/>
<path d="M552.359 111.052V220.155H540.834V244.4H552.359V366.642H556.681V111.052H552.359Z" fill="url(#paint18_linear)"/>
<path d="M392.617 366.896C392.617 366.896 384.058 144.368 478.462 80.9579C549.054 33.57 608.798 57.2216 634.475 72.1416C647.95 79.8559 657.356 92.9957 660.237 108.255C664.39 131.652 653.712 165.052 575.155 186.5C443.548 222.528 412.617 311.37 412.617 311.37L392.617 366.896Z" fill="url(#paint19_linear)"/>
<path d="M391.939 366.812C397.363 307.64 412.617 256.692 437.107 215.323C456.768 182.261 482.361 155.219 513.292 135.043C565.918 100.71 616.34 97.9973 616.849 97.9973L616.933 99.4384C616.425 99.4384 566.341 102.151 514.055 136.315C465.751 167.85 405.668 233.464 393.38 366.896L391.939 366.812Z" fill="url(#paint20_linear)"/>
<path d="M509.987 139.027L508.801 138.264C523.292 115.291 503.038 91.7241 502.784 91.4698L503.885 90.5373C504.055 90.7916 524.987 115.206 509.987 139.027Z" fill="url(#paint21_linear)"/>
<path d="M459.903 185.313L458.717 184.465C461.344 180.99 464.819 178.955 468.971 178.531C480.92 177.345 494.564 189.382 495.157 189.891L494.225 190.993C494.055 190.908 480.411 178.87 469.14 179.973C465.327 180.312 462.276 182.092 459.903 185.313Z" fill="url(#paint22_linear)"/>
<path d="M437.362 215.153C437.701 213.542 437.446 212.017 436.514 210.575C432.616 204.726 419.311 202.268 419.227 202.268L419.481 200.827C420.074 200.911 433.548 203.455 437.701 209.812C438.887 211.593 439.226 213.458 438.802 215.492L437.362 215.153Z" fill="url(#paint23_linear)"/>
<path d="M389.651 367.914C389.651 367.914 502.699 237.618 522.02 246.18C531.173 250.249 533.122 260.846 532.613 270.934C531.851 283.819 527.105 296.196 518.97 306.369C502.36 327.477 462.276 365.625 389.651 367.914Z" fill="url(#paint24_linear)"/>
<path d="M391.092 367.829L391.007 366.388C406.769 365.37 512.444 274.833 513.546 273.901L514.478 275.003C510.072 278.733 407.362 366.812 391.092 367.829Z" fill="url(#paint25_linear)"/>
<path d="M516.343 294.5L498.292 289.753L498.716 288.312L516.682 293.144L516.343 294.5Z" fill="url(#paint26_linear)"/>
<path d="M455.412 323.577L455.751 322.136L484.31 328.41L483.971 329.766L455.412 323.577Z" fill="url(#paint27_linear)"/>
<path d="M474.056 307.301L474.903 291.703L476.259 291.788L475.496 307.301H474.056Z" fill="url(#paint28_linear)"/>
<path d="M430.074 342.058L433.04 328.494L434.48 328.833L431.43 342.312L430.074 342.058Z" fill="url(#paint29_linear)"/>
<path d="M391.854 368.507C391.854 368.507 357.703 199.385 336.686 197.351C326.687 196.334 319.738 204.641 315.246 213.627C309.568 225.241 307.534 238.381 309.653 251.097C313.806 277.8 329.822 330.698 391.854 368.507Z" fill="url(#paint30_linear)"/>
<path d="M390.753 367.659C377.109 358.758 331.093 231.514 329.144 226.089L330.5 225.58C331.008 226.937 378.295 357.826 391.515 366.472L390.753 367.659Z" fill="url(#paint31_linear)"/>
<path d="M335.924 246.943L317.873 242.196L318.212 240.755L336.263 245.502L335.924 246.943Z" fill="url(#paint32_linear)"/>
<path d="M356.516 297.467L328.636 288.821L329.059 287.464L356.94 296.111L356.516 297.467Z" fill="url(#paint33_linear)"/>
<path d="M348.381 274.155L347.11 273.477L353.974 259.574L355.33 260.252L348.381 274.155Z" fill="url(#paint34_linear)"/>
<path d="M369.482 326.036L368.126 325.612L372.194 312.387L373.55 312.811L369.482 326.036Z" fill="url(#paint35_linear)"/>
<path d="M248.383 310.014C248.383 310.014 217.452 221.172 85.8453 185.144C7.28799 163.696 -3.38971 130.296 0.762726 106.898C3.64401 91.6393 13.0505 78.4996 26.5248 70.7853C52.1173 55.8653 111.862 32.2137 182.453 79.6016C276.857 143.012 268.298 365.54 268.298 365.54L248.383 310.014Z" fill="url(#paint36_linear)"/>
<path d="M269.061 365.54C263.637 306.369 248.383 255.42 223.893 214.051C204.232 180.99 178.639 153.947 147.708 133.771C94.9976 99.4384 44.5751 96.8105 44.0667 96.7257L43.9819 98.1668C44.4904 98.1668 94.5739 100.88 146.861 135.043C195.164 166.578 255.248 232.193 267.536 365.625L269.061 365.54Z" fill="url(#paint37_linear)"/>
<path d="M151.013 137.671L152.2 136.908C137.708 113.935 157.962 90.3677 158.216 90.1134L157.115 89.1809C156.945 89.52 136.013 113.85 151.013 137.671Z" fill="url(#paint38_linear)"/>
<path d="M201.097 183.957L202.283 183.109C199.656 179.633 196.181 177.599 192.029 177.175C180.08 175.988 166.436 188.026 165.843 188.535L166.775 189.637C166.945 189.552 180.589 177.514 191.86 178.616C195.673 178.955 198.724 180.736 201.097 183.957Z" fill="url(#paint39_linear)"/>
<path d="M223.638 213.797C223.299 212.186 223.554 210.66 224.486 209.219C228.384 203.37 241.689 200.911 241.773 200.911L241.519 199.47C240.926 199.555 227.452 202.098 223.299 208.456C222.113 210.236 221.774 212.101 222.198 214.136L223.638 213.797Z" fill="url(#paint40_linear)"/>
<path d="M141.946 304.928C133.81 294.84 129.065 282.463 128.302 269.493C127.793 259.489 129.742 248.893 138.895 244.739C158.216 236.177 271.264 366.473 271.264 366.473C198.724 364.268 158.64 326.121 141.946 304.928Z" fill="url(#paint41_linear)"/>
<path d="M269.908 366.473L269.993 365.031C254.231 364.099 148.556 273.477 147.454 272.544L146.522 273.646C150.928 277.376 253.638 365.455 269.908 366.473Z" fill="url(#paint42_linear)"/>
<path d="M144.657 293.144L162.708 288.397L162.284 287.041L144.318 291.788L144.657 293.144Z" fill="url(#paint43_linear)"/>
<path d="M205.588 322.221L205.249 320.78L176.69 327.053L177.029 328.494L205.588 322.221Z" fill="url(#paint44_linear)"/>
<path d="M186.944 305.945L186.097 290.431L184.741 290.516L185.504 306.03L186.944 305.945Z" fill="url(#paint45_linear)"/>
<path d="M230.926 340.702L227.96 327.138L226.52 327.477L229.57 340.956L230.926 340.702Z" fill="url(#paint46_linear)"/>
<path d="M351.347 249.74C353.466 236.94 351.432 223.885 345.754 212.271C341.263 203.285 334.314 195.062 324.314 195.995C303.213 198.029 269.146 367.151 269.146 367.151C331.178 329.342 347.195 276.444 351.347 249.74Z" fill="url(#paint47_linear)"/>
<path d="M270.247 366.388C283.891 357.487 329.907 230.243 331.856 224.817L330.5 224.309C329.992 225.665 282.705 356.554 269.485 365.201L270.247 366.388Z" fill="url(#paint48_linear)"/>
<path d="M325.077 245.587L343.127 240.839L342.788 239.398L324.738 244.145L325.077 245.587Z" fill="url(#paint49_linear)"/>
<path d="M304.484 296.111L332.364 287.464L331.941 286.108L304.06 294.755L304.484 296.111Z" fill="url(#paint50_linear)"/>
<path d="M312.619 272.799L313.89 272.121L307.026 258.218L305.67 258.896L312.619 272.799Z" fill="url(#paint51_linear)"/>
<path d="M291.518 324.764L292.874 324.341L288.806 311.031L287.45 311.455L291.518 324.764Z" fill="url(#paint52_linear)"/>
<path d="M432.531 0H249.4V364.947H432.531V0Z" fill="url(#paint53_linear)"/>
<path d="M432.531 0H400.837V364.947H432.531V0Z" fill="url(#paint54_linear)"/>
<path d="M366.177 108.17L396.431 239.059V121.14L366.177 108.17Z" fill="url(#paint55_linear)"/>
<path d="M321.009 147.42L283.976 262.541V178.87L321.009 147.42Z" fill="url(#paint56_linear)"/>
<path d="M283.976 0H396.431L283.976 76.465V0Z" fill="url(#paint57_linear)"/>
<path d="M385.329 190.823L321.517 147.165L370.499 102.405L385.329 190.823Z" fill="url(#paint58_linear)"/>
<path d="M396.431 0L283.976 77.1432L365.753 109.187L396.431 121.14V0Z" fill="url(#paint59_linear)"/>
<path d="M283.976 178.447L366.177 109.611L283.976 76.465V178.447Z" fill="url(#paint60_linear)"/>
<path d="M321.517 147.165L340.246 271.188L283.976 262.541L321.517 147.165Z" fill="url(#paint61_linear)"/>
<path d="M340.246 271.188L396.431 364.947L283.976 262.541L340.246 271.188Z" fill="url(#paint62_linear)"/>
<path d="M283.976 262.541V364.947L344.822 317.983L283.976 262.541Z" fill="url(#paint63_linear)"/>
<path d="M344.567 317.389L283.976 364.947H396.431L344.567 317.389Z" fill="url(#paint64_linear)"/>
<path d="M260.926 0V121.14H275.332V167.341H260.926V364.947H283.976V0H260.926Z" fill="url(#paint65_linear)"/>
<path d="M270.502 126.99H263.807V157.253H270.502V126.99Z" fill="url(#paint66_linear)"/>
<path d="M366.177 177.768L340.246 271.188L321.517 147.165L366.177 177.768Z" fill="url(#paint67_linear)"/>
<path d="M340.246 271.188L384.905 190.4L366.177 178.87L340.246 271.188Z" fill="url(#paint68_linear)"/>
<path d="M384.906 190.4L396.431 239.483V364.947L384.906 190.4Z" fill="url(#paint69_linear)"/>
<path d="M384.905 190.4L340.246 271.188L396.431 364.947L384.905 190.4Z" fill="url(#paint70_linear)"/>
<path d="M421.006 0V155.812H409.481V190.4H421.006V364.947H425.328V0H421.006Z" fill="url(#paint71_linear)"/>
<path opacity="0.4" d="M328.805 101.303V360.369C328.805 362.742 326.941 364.607 324.568 364.607H131.692C129.319 364.607 127.454 362.742 127.454 360.369V101.303C127.454 98.9298 129.319 97.0648 131.692 97.0648H324.568C326.941 97.0648 328.805 98.9298 328.805 101.303Z" fill="url(#paint72_linear)"/>
<path d="M305.924 128.007H157.369V331.461H305.924V128.007Z" fill="url(#paint73_linear)"/>
<path opacity="0.32" d="M265.671 223.122H187.029C185.08 223.122 183.385 221.511 183.385 219.477V164.629C183.385 162.679 184.995 160.983 187.029 160.983H265.671C267.62 160.983 269.315 162.594 269.315 164.629V219.477C269.23 221.426 267.62 223.122 265.671 223.122Z" fill="url(#paint74_linear)"/>
<path opacity="0.32" d="M270.756 218.798H192.114C190.165 218.798 188.47 217.188 188.47 215.153V160.305C188.47 158.355 190.08 156.66 192.114 156.66H270.756C272.705 156.66 274.4 158.271 274.4 160.305V215.153C274.4 217.103 272.79 218.798 270.756 218.798Z" fill="url(#paint75_linear)"/>
<path d="M277.959 212.949H199.317C197.368 212.949 195.673 211.338 195.673 209.304V154.456C195.673 152.506 197.283 150.811 199.317 150.811H277.959C279.908 150.811 281.603 152.421 281.603 154.456V209.389C281.518 211.338 279.908 212.949 277.959 212.949Z" fill="url(#paint76_linear)"/>
<path d="M252.621 168.698C250.248 168.443 248.638 167.087 247.621 165.392H222.537C222.282 167.68 221.011 169.885 218.808 170.902L222.791 198.623C224.825 198.877 226.35 199.809 227.367 201.166L251.35 200.064C252.197 198.538 253.553 197.351 255.417 196.842L252.621 168.698Z" fill="url(#paint77_linear)"/>
<path d="M238.977 165.307C243.045 165.307 246.095 168.443 246.095 172.428C246.095 176.412 242.96 179.549 238.977 179.549C234.909 179.549 231.858 176.412 231.858 172.428C231.858 168.443 234.909 165.307 238.977 165.307ZM238.977 199.131C233.045 199.131 227.791 195.995 224.74 191.502C224.74 186.754 234.231 184.126 238.977 184.126C243.723 184.126 253.214 186.754 253.214 191.502C250.163 195.995 244.909 199.131 238.977 199.131ZM238.977 158.186C225.926 158.186 215.164 168.867 215.164 182.007C215.164 195.147 225.842 205.828 238.977 205.828C252.112 205.828 262.79 195.147 262.79 182.007C262.79 168.867 252.112 158.186 238.977 158.186Z" fill="url(#paint78_linear)"/>
<path opacity="0.32" d="M270.502 310.014H180.589C178.64 310.014 176.945 308.403 176.945 306.369V251.521C176.945 249.571 178.555 247.875 180.589 247.875H270.586C272.535 247.875 274.23 249.486 274.23 251.521V306.369C274.146 308.403 272.536 310.014 270.502 310.014Z" fill="url(#paint79_linear)"/>
<path opacity="0.32" d="M276.349 305.69H186.351C184.402 305.69 182.707 304.08 182.707 302.045V247.197C182.707 245.247 184.317 243.552 186.351 243.552H276.349C278.298 243.552 279.993 245.163 279.993 247.197V302.045C279.908 304.08 278.298 305.69 276.349 305.69Z" fill="url(#paint80_linear)"/>
<path d="M284.4 299.926H194.487C192.538 299.926 190.843 298.315 190.843 296.281V241.433C190.843 239.483 192.453 237.787 194.487 237.787H284.484C286.433 237.787 288.128 239.398 288.128 241.433V296.281C288.044 298.315 286.433 299.926 284.4 299.926Z" fill="url(#paint81_linear)"/>
<path opacity="0.5" d="M202.961 288.397C202.961 288.397 208.724 276.868 231.774 278.309C254.824 279.75 258.722 265.339 258.722 265.339C258.722 265.339 263.468 252.368 282.196 258.133V288.397H202.961Z" fill="url(#paint82_linear)"/>
<path d="M359.313 174.293C362.215 174.293 364.567 171.94 364.567 169.037C364.567 166.134 362.215 163.781 359.313 163.781C356.411 163.781 354.059 166.134 354.059 169.037C354.059 171.94 356.411 174.293 359.313 174.293Z" fill="url(#paint83_linear)"/>
<path d="M360.499 174.038H358.55V195.486H360.499V174.038Z" fill="url(#paint84_linear)"/>
<path d="M302.789 268.56C287.62 299.163 278.976 325.782 283.552 328.07C288.128 330.359 304.145 307.471 319.314 276.868C334.483 246.265 312.111 281.954 307.619 279.665C303.043 277.376 318.043 237.957 302.789 268.56Z" fill="url(#paint85_linear)"/>
<path d="M417.616 271.697C432.786 302.299 441.429 328.918 436.853 331.207C432.277 333.496 416.261 310.607 401.091 280.004C385.922 249.401 408.295 285.091 412.786 282.802C417.447 280.598 402.447 241.178 417.616 271.697Z" fill="url(#paint86_linear)"/>
<path d="M317.449 211.932C317.449 190.06 337.534 190.06 362.364 190.06C387.193 190.06 407.278 190.06 407.278 211.932C407.278 233.803 387.193 251.605 362.364 251.605C337.534 251.605 317.449 233.803 317.449 211.932Z" fill="url(#paint87_linear)"/>
<path d="M362.448 203.709C373.465 203.709 383.804 203.709 389.821 205.743C392.532 206.676 393.634 207.015 393.634 211.932C393.634 226.258 379.567 237.957 362.364 237.957C345.161 237.957 331.093 226.258 331.093 211.932C331.093 207.015 332.195 206.676 334.907 205.743C340.924 203.709 351.262 203.709 362.194 203.709H362.448V203.709Z" fill="url(#paint88_linear)"/>
<path d="M417.108 292.974C417.108 334.683 392.278 368.507 361.686 368.507C331.093 368.507 306.263 334.683 306.263 292.974C306.263 251.266 328.72 261.185 359.313 261.185C389.905 261.185 417.108 251.266 417.108 292.974Z" fill="url(#paint89_linear)"/>
<path d="M361.686 340.956C348.466 340.956 333.72 320.441 333.72 292.975C333.72 290.855 333.805 289.075 333.89 287.719C336.517 287.803 339.568 287.973 342.788 288.142C347.703 288.397 353.296 288.736 359.313 288.736C365.245 288.736 370.838 288.397 375.838 288.142C379.905 287.888 383.804 287.719 387.024 287.719C387.956 287.719 388.719 287.719 389.397 287.803C389.566 289.075 389.651 290.77 389.651 292.975C389.736 320.441 374.906 340.956 361.686 340.956Z" fill="url(#paint90_linear)"/>
<path d="M346.008 220.833C348.442 220.833 350.415 218.859 350.415 216.425C350.415 213.99 348.442 212.017 346.008 212.017C343.574 212.017 341.601 213.99 341.601 216.425C341.601 218.859 343.574 220.833 346.008 220.833Z" fill="white"/>
<path d="M379.312 220.833C381.746 220.833 383.719 218.859 383.719 216.425C383.719 213.99 381.746 212.017 379.312 212.017C376.879 212.017 374.906 213.99 374.906 216.425C374.906 218.859 376.879 220.833 379.312 220.833Z" fill="white"/>
<path d="M414.142 249.995H411.6C411.176 249.995 410.837 249.656 410.837 249.232C410.837 248.808 411.176 248.469 411.6 248.469H414.142C414.566 248.469 414.905 248.808 414.905 249.232C414.905 249.656 414.566 249.995 414.142 249.995Z" fill="white"/>
<path d="M362.703 373C363.779 373 364.652 372.127 364.652 371.05C364.652 369.973 363.779 369.1 362.703 369.1C361.626 369.1 360.753 369.973 360.753 371.05C360.753 372.127 361.626 373 362.703 373Z" fill="white"/>
<path d="M404.057 262.965C393.21 257.879 376.855 261.185 359.313 261.185C341.771 261.185 326.941 257.963 317.449 262.965C317.534 263.05 353.127 280.089 404.057 262.965Z" fill="url(#paint91_linear)"/>
<path d="M359.821 314.083L357.025 317.05V324.68H352.788V300.265H357.025V311.709L359.398 308.827L366.516 300.265H371.601L362.533 311.116L372.109 324.764H367.109L359.821 314.083Z" fill="white"/>
<defs>
<linearGradient id="paint0_linear" x1="472.303" y1="366.681" x2="472.303" y2="110.465" gradientUnits="userSpaceOnUse">
<stop stop-color="#1166D8"/>
<stop offset="0.1664" stop-color="#1164D4"/>
<stop offset="0.3188" stop-color="#115FC9"/>
<stop offset="0.4658" stop-color="#1055B7"/>
<stop offset="0.6095" stop-color="#10489C"/>
<stop offset="0.7508" stop-color="#0F377B"/>
<stop offset="0.8883" stop-color="#0F2252"/>
<stop offset="1" stop-color="#0E0E2B"/>
</linearGradient>
<linearGradient id="paint1_linear" x1="548.015" y1="113.087" x2="548.015" y2="365.744" gradientUnits="userSpaceOnUse">
<stop stop-color="#1166D8"/>
<stop offset="0.1664" stop-color="#1164D4"/>
<stop offset="0.3188" stop-color="#115FC9"/>
<stop offset="0.4658" stop-color="#1055B7"/>
<stop offset="0.6095" stop-color="#10489C"/>
<stop offset="0.7508" stop-color="#0F377B"/>
<stop offset="0.8883" stop-color="#0F2252"/>
<stop offset="1" stop-color="#0E0E2B"/>
</linearGradient>
<linearGradient id="paint2_linear" x1="509.136" y1="173.971" x2="531.799" y2="285.187" gradientUnits="userSpaceOnUse">
<stop stop-color="#1166D8"/>
<stop offset="0.1664" stop-color="#1164D4"/>
<stop offset="0.3188" stop-color="#115FC9"/>
<stop offset="0.4658" stop-color="#1055B7"/>
<stop offset="0.6095" stop-color="#10489C"/>
<stop offset="0.7508" stop-color="#0F377B"/>
<stop offset="0.8883" stop-color="#0F2252"/>
<stop offset="1" stop-color="#0E0E2B"/>
</linearGradient>
<linearGradient id="paint3_linear" x1="440.194" y1="211.091" x2="411.09" y2="276.376" gradientUnits="userSpaceOnUse">
<stop stop-color="#1166D8"/>
<stop offset="0.1664" stop-color="#1164D4"/>
<stop offset="0.3188" stop-color="#115FC9"/>
<stop offset="0.4658" stop-color="#1055B7"/>
<stop offset="0.6095" stop-color="#10489C"/>
<stop offset="0.7508" stop-color="#0F377B"/>
<stop offset="0.8883" stop-color="#0F2252"/>
<stop offset="1" stop-color="#0E0E2B"/>
</linearGradient>
<linearGradient id="paint4_linear" x1="447.598" y1="92.1962" x2="478.108" y2="150.219" gradientUnits="userSpaceOnUse">
<stop stop-color="#1166D8"/>
<stop offset="0.1664" stop-color="#1164D4"/>
<stop offset="0.3188" stop-color="#115FC9"/>
<stop offset="0.4658" stop-color="#1055B7"/>
<stop offset="0.6095" stop-color="#10489C"/>
<stop offset="0.7508" stop-color="#0F377B"/>
<stop offset="0.8883" stop-color="#0F2252"/>
<stop offset="1" stop-color="#0E0E2B"/>
</linearGradient>
<linearGradient id="paint5_linear" x1="514.815" y1="249.566" x2="473.554" y2="193.32" gradientUnits="userSpaceOnUse">
<stop stop-color="#00E0FF"/>
<stop offset="1" stop-color="#009BFF"/>
</linearGradient>
<linearGradient id="paint6_linear" x1="471.582" y1="195.935" x2="471.582" y2="110.867" gradientUnits="userSpaceOnUse">
<stop stop-color="#00E0FF"/>
<stop offset="1" stop-color="#009BFF"/>
</linearGradient>
<linearGradient id="paint7_linear" x1="418.908" y1="163.344" x2="474.582" y2="235.368" gradientUnits="userSpaceOnUse">
<stop stop-color="#00E0FF"/>
<stop offset="1" stop-color="#009BFF"/>
</linearGradient>
<linearGradient id="paint8_linear" x1="446.068" y1="203.42" x2="443.378" y2="300.91" gradientUnits="userSpaceOnUse">
<stop stop-color="#00E0FF"/>
<stop offset="1" stop-color="#009BFF"/>
</linearGradient>
<linearGradient id="paint9_linear" x1="504.505" y1="378.95" x2="421.584" y2="257.798" gradientUnits="userSpaceOnUse">
<stop stop-color="#00E0FF"/>
<stop offset="1" stop-color="#009BFF"/>
</linearGradient>
<linearGradient id="paint10_linear" x1="447.625" y1="353.254" x2="412.608" y2="296.102" gradientUnits="userSpaceOnUse">
<stop stop-color="#1166D8"/>
<stop offset="0.1664" stop-color="#1164D4"/>
<stop offset="0.3188" stop-color="#115FC9"/>
<stop offset="0.4658" stop-color="#1055B7"/>
<stop offset="0.6095" stop-color="#10489C"/>
<stop offset="0.7508" stop-color="#0F377B"/>
<stop offset="0.8883" stop-color="#0F2252"/>
<stop offset="1" stop-color="#0E0E2B"/>
</linearGradient>
<linearGradient id="paint11_linear" x1="423.057" y1="335.399" x2="509.603" y2="391.154" gradientUnits="userSpaceOnUse">
<stop stop-color="#00E0FF"/>
<stop offset="1" stop-color="#009BFF"/>
</linearGradient>
<linearGradient id="paint12_linear" x1="403.802" y1="366.681" x2="403.802" y2="110.465" gradientUnits="userSpaceOnUse">
<stop stop-color="#00E0FF"/>
<stop offset="0.2489" stop-color="#00DCFF"/>
<stop offset="0.4853" stop-color="#00D1FF"/>
<stop offset="0.7166" stop-color="#00BEFF"/>
<stop offset="0.9436" stop-color="#00A3FF"/>
<stop offset="1" stop-color="#009BFF"/>
</linearGradient>
<linearGradient id="paint13_linear" x1="398.514" y1="221.193" x2="398.514" y2="199.926" gradientUnits="userSpaceOnUse">
<stop stop-color="#FFC975"/>
<stop offset="1" stop-color="#FF9F65"/>
</linearGradient>
<linearGradient id="paint14_linear" x1="475.187" y1="301.009" x2="475.187" y2="213.916" gradientUnits="userSpaceOnUse">
<stop stop-color="#1166D8"/>
<stop offset="0.1664" stop-color="#1164D4"/>
<stop offset="0.3188" stop-color="#115FC9"/>
<stop offset="0.4658" stop-color="#1055B7"/>
<stop offset="0.6095" stop-color="#10489C"/>
<stop offset="0.7508" stop-color="#0F377B"/>
<stop offset="0.8883" stop-color="#0F2252"/>
<stop offset="1" stop-color="#0E0E2B"/>
</linearGradient>
<linearGradient id="paint15_linear" x1="493.935" y1="301.009" x2="493.935" y2="236.196" gradientUnits="userSpaceOnUse">
<stop stop-color="#00E0FF"/>
<stop offset="1" stop-color="#009BFF"/>
</linearGradient>
<linearGradient id="paint16_linear" x1="522.057" y1="366.681" x2="522.057" y2="244.143" gradientUnits="userSpaceOnUse">
<stop stop-color="#00E0FF"/>
<stop offset="1" stop-color="#009BFF"/>
</linearGradient>
<linearGradient id="paint17_linear" x1="499.704" y1="366.681" x2="499.704" y2="244.143" gradientUnits="userSpaceOnUse">
<stop stop-color="#1166D8"/>
<stop offset="0.1664" stop-color="#1164D4"/>
<stop offset="0.3188" stop-color="#115FC9"/>
<stop offset="0.4658" stop-color="#1055B7"/>
<stop offset="0.6095" stop-color="#10489C"/>
<stop offset="0.7508" stop-color="#0F377B"/>
<stop offset="0.8883" stop-color="#0F2252"/>
<stop offset="1" stop-color="#0E0E2B"/>
</linearGradient>
<linearGradient id="paint18_linear" x1="548.736" y1="113.087" x2="548.736" y2="365.744" gradientUnits="userSpaceOnUse">
<stop stop-color="#FFC975"/>
<stop offset="1" stop-color="#FF9F65"/>
</linearGradient>
<linearGradient id="paint19_linear" x1="412.258" y1="190.143" x2="628.194" y2="247.044" gradientUnits="userSpaceOnUse">
<stop stop-color="#00E0FF"/>
<stop offset="1" stop-color="#009BFF"/>
</linearGradient>
<linearGradient id="paint20_linear" x1="426.289" y1="211.87" x2="576.914" y2="251.56" gradientUnits="userSpaceOnUse">
<stop stop-color="#1166D8"/>
<stop offset="0.1664" stop-color="#1164D4"/>
<stop offset="0.3188" stop-color="#115FC9"/>
<stop offset="0.4658" stop-color="#1055B7"/>
<stop offset="0.6095" stop-color="#10489C"/>
<stop offset="0.7508" stop-color="#0F377B"/>
<stop offset="0.8883" stop-color="#0F2252"/>
<stop offset="1" stop-color="#0E0E2B"/>
</linearGradient>
<linearGradient id="paint21_linear" x1="497.309" y1="112.274" x2="517.366" y2="117.559" gradientUnits="userSpaceOnUse">
<stop stop-color="#1166D8"/>
<stop offset="0.1664" stop-color="#1164D4"/>
<stop offset="0.3188" stop-color="#115FC9"/>
<stop offset="0.4658" stop-color="#1055B7"/>
<stop offset="0.6095" stop-color="#10489C"/>
<stop offset="0.7508" stop-color="#0F377B"/>
<stop offset="0.8883" stop-color="#0F2252"/>
<stop offset="1" stop-color="#0E0E2B"/>
</linearGradient>
<linearGradient id="paint22_linear" x1="459.855" y1="180.066" x2="495.269" y2="189.397" gradientUnits="userSpaceOnUse">
<stop stop-color="#1166D8"/>
<stop offset="0.1664" stop-color="#1164D4"/>
<stop offset="0.3188" stop-color="#115FC9"/>
<stop offset="0.4658" stop-color="#1055B7"/>
<stop offset="0.6095" stop-color="#10489C"/>
<stop offset="0.7508" stop-color="#0F377B"/>
<stop offset="0.8883" stop-color="#0F2252"/>
<stop offset="1" stop-color="#0E0E2B"/>
</linearGradient>
<linearGradient id="paint23_linear" x1="418.249" y1="205.264" x2="439.926" y2="210.976" gradientUnits="userSpaceOnUse">
<stop stop-color="#1166D8"/>
<stop offset="0.1664" stop-color="#1164D4"/>
<stop offset="0.3188" stop-color="#115FC9"/>
<stop offset="0.4658" stop-color="#1055B7"/>
<stop offset="0.6095" stop-color="#10489C"/>
<stop offset="0.7508" stop-color="#0F377B"/>
<stop offset="0.8883" stop-color="#0F2252"/>
<stop offset="1" stop-color="#0E0E2B"/>
</linearGradient>
<linearGradient id="paint24_linear" x1="408.976" y1="294.648" x2="519.985" y2="323.9" gradientUnits="userSpaceOnUse">
<stop stop-color="#00E0FF"/>
<stop offset="1" stop-color="#009BFF"/>
</linearGradient>
<linearGradient id="paint25_linear" x1="406.185" y1="308.691" x2="499.127" y2="333.182" gradientUnits="userSpaceOnUse">
<stop stop-color="#1166D8"/>
<stop offset="0.1664" stop-color="#1164D4"/>
<stop offset="0.3188" stop-color="#115FC9"/>
<stop offset="0.4658" stop-color="#1055B7"/>
<stop offset="0.6095" stop-color="#10489C"/>
<stop offset="0.7508" stop-color="#0F377B"/>
<stop offset="0.8883" stop-color="#0F2252"/>
<stop offset="1" stop-color="#0E0E2B"/>
</linearGradient>
<linearGradient id="paint26_linear" x1="498.493" y1="289.052" x2="516.516" y2="293.802" gradientUnits="userSpaceOnUse">
<stop stop-color="#1166D8"/>
<stop offset="0.1664" stop-color="#1164D4"/>
<stop offset="0.3188" stop-color="#115FC9"/>
<stop offset="0.4658" stop-color="#1055B7"/>
<stop offset="0.6095" stop-color="#10489C"/>
<stop offset="0.7508" stop-color="#0F377B"/>
<stop offset="0.8883" stop-color="#0F2252"/>
<stop offset="1" stop-color="#0E0E2B"/>
</linearGradient>
<linearGradient id="paint27_linear" x1="455.678" y1="322.243" x2="483.994" y2="329.705" gradientUnits="userSpaceOnUse">
<stop stop-color="#1166D8"/>
<stop offset="0.1664" stop-color="#1164D4"/>
<stop offset="0.3188" stop-color="#115FC9"/>
<stop offset="0.4658" stop-color="#1055B7"/>
<stop offset="0.6095" stop-color="#10489C"/>
<stop offset="0.7508" stop-color="#0F377B"/>
<stop offset="0.8883" stop-color="#0F2252"/>
<stop offset="1" stop-color="#0E0E2B"/>
</linearGradient>
<linearGradient id="paint28_linear" x1="472.949" y1="298.958" x2="477.377" y2="300.125" gradientUnits="userSpaceOnUse">
<stop stop-color="#1166D8"/>
<stop offset="0.1664" stop-color="#1164D4"/>
<stop offset="0.3188" stop-color="#115FC9"/>
<stop offset="0.4658" stop-color="#1055B7"/>
<stop offset="0.6095" stop-color="#10489C"/>
<stop offset="0.7508" stop-color="#0F377B"/>
<stop offset="0.8883" stop-color="#0F2252"/>
<stop offset="1" stop-color="#0E0E2B"/>
</linearGradient>
<linearGradient id="paint29_linear" x1="431.263" y1="335.169" x2="433.201" y2="335.679" gradientUnits="userSpaceOnUse">
<stop stop-color="#1166D8"/>
<stop offset="0.1664" stop-color="#1164D4"/>
<stop offset="0.3188" stop-color="#115FC9"/>
<stop offset="0.4658" stop-color="#1055B7"/>
<stop offset="0.6095" stop-color="#10489C"/>
<stop offset="0.7508" stop-color="#0F377B"/>
<stop offset="0.8883" stop-color="#0F2252"/>
<stop offset="1" stop-color="#0E0E2B"/>
</linearGradient>
<linearGradient id="paint30_linear" x1="300.16" y1="265.954" x2="411.167" y2="295.205" gradientUnits="userSpaceOnUse">
<stop stop-color="#00E0FF"/>
<stop offset="1" stop-color="#009BFF"/>
</linearGradient>
<linearGradient id="paint31_linear" x1="313.741" y1="284.315" x2="406.682" y2="308.805" gradientUnits="userSpaceOnUse">
<stop stop-color="#1166D8"/>
<stop offset="0.1664" stop-color="#1164D4"/>
<stop offset="0.3188" stop-color="#115FC9"/>
<stop offset="0.4658" stop-color="#1055B7"/>
<stop offset="0.6095" stop-color="#10489C"/>
<stop offset="0.7508" stop-color="#0F377B"/>
<stop offset="0.8883" stop-color="#0F2252"/>
<stop offset="1" stop-color="#0E0E2B"/>
</linearGradient>
<linearGradient id="paint32_linear" x1="318.021" y1="241.464" x2="336.053" y2="246.216" gradientUnits="userSpaceOnUse">
<stop stop-color="#1166D8"/>
<stop offset="0.1664" stop-color="#1164D4"/>
<stop offset="0.3188" stop-color="#115FC9"/>
<stop offset="0.4658" stop-color="#1055B7"/>
<stop offset="0.6095" stop-color="#10489C"/>
<stop offset="0.7508" stop-color="#0F377B"/>
<stop offset="0.8883" stop-color="#0F2252"/>
<stop offset="1" stop-color="#0E0E2B"/>
</linearGradient>
<linearGradient id="paint33_linear" x1="328.624" y1="288.74" x2="356.941" y2="296.202" gradientUnits="userSpaceOnUse">
<stop stop-color="#1166D8"/>
<stop offset="0.1664" stop-color="#1164D4"/>
<stop offset="0.3188" stop-color="#115FC9"/>
<stop offset="0.4658" stop-color="#1055B7"/>
<stop offset="0.6095" stop-color="#10489C"/>
<stop offset="0.7508" stop-color="#0F377B"/>
<stop offset="0.8883" stop-color="#0F2252"/>
<stop offset="1" stop-color="#0E0E2B"/>
</linearGradient>
<linearGradient id="paint34_linear" x1="348.959" y1="266.263" x2="353.388" y2="267.43" gradientUnits="userSpaceOnUse">
<stop stop-color="#1166D8"/>
<stop offset="0.1664" stop-color="#1164D4"/>
<stop offset="0.3188" stop-color="#115FC9"/>
<stop offset="0.4658" stop-color="#1055B7"/>
<stop offset="0.6095" stop-color="#10489C"/>
<stop offset="0.7508" stop-color="#0F377B"/>
<stop offset="0.8883" stop-color="#0F2252"/>
<stop offset="1" stop-color="#0E0E2B"/>
</linearGradient>
<linearGradient id="paint35_linear" x1="369.875" y1="318.981" x2="371.822" y2="319.494" gradientUnits="userSpaceOnUse">
<stop stop-color="#1166D8"/>
<stop offset="0.1664" stop-color="#1164D4"/>
<stop offset="0.3188" stop-color="#115FC9"/>
<stop offset="0.4658" stop-color="#1055B7"/>
<stop offset="0.6095" stop-color="#10489C"/>
<stop offset="0.7508" stop-color="#0F377B"/>
<stop offset="0.8883" stop-color="#0F2252"/>
<stop offset="1" stop-color="#0E0E2B"/>
</linearGradient>
<linearGradient id="paint36_linear" x1="248.787" y1="188.81" x2="32.8507" y2="245.711" gradientUnits="userSpaceOnUse">
<stop stop-color="#00E0FF"/>
<stop offset="1" stop-color="#009BFF"/>
</linearGradient>
<linearGradient id="paint37_linear" x1="234.756" y1="210.537" x2="84.1312" y2="250.228" gradientUnits="userSpaceOnUse">
<stop stop-color="#1166D8"/>
<stop offset="0.1664" stop-color="#1164D4"/>
<stop offset="0.3188" stop-color="#115FC9"/>
<stop offset="0.4658" stop-color="#1055B7"/>
<stop offset="0.6095" stop-color="#10489C"/>
<stop offset="0.7508" stop-color="#0F377B"/>
<stop offset="0.8883" stop-color="#0F2252"/>
<stop offset="1" stop-color="#0E0E2B"/>
</linearGradient>
<linearGradient id="paint38_linear" x1="163.735" y1="110.942" x2="143.679" y2="116.227" gradientUnits="userSpaceOnUse">
<stop stop-color="#1166D8"/>
<stop offset="0.1664" stop-color="#1164D4"/>
<stop offset="0.3188" stop-color="#115FC9"/>
<stop offset="0.4658" stop-color="#1055B7"/>
<stop offset="0.6095" stop-color="#10489C"/>
<stop offset="0.7508" stop-color="#0F377B"/>
<stop offset="0.8883" stop-color="#0F2252"/>
<stop offset="1" stop-color="#0E0E2B"/>
</linearGradient>
<linearGradient id="paint39_linear" x1="201.189" y1="178.733" x2="165.775" y2="188.065" gradientUnits="userSpaceOnUse">
<stop stop-color="#1166D8"/>
<stop offset="0.1664" stop-color="#1164D4"/>
<stop offset="0.3188" stop-color="#115FC9"/>
<stop offset="0.4658" stop-color="#1055B7"/>
<stop offset="0.6095" stop-color="#10489C"/>
<stop offset="0.7508" stop-color="#0F377B"/>
<stop offset="0.8883" stop-color="#0F2252"/>
<stop offset="1" stop-color="#0E0E2B"/>
</linearGradient>
<linearGradient id="paint40_linear" x1="242.796" y1="203.932" x2="221.119" y2="209.644" gradientUnits="userSpaceOnUse">
<stop stop-color="#1166D8"/>
<stop offset="0.1664" stop-color="#1164D4"/>
<stop offset="0.3188" stop-color="#115FC9"/>
<stop offset="0.4658" stop-color="#1055B7"/>
<stop offset="0.6095" stop-color="#10489C"/>
<stop offset="0.7508" stop-color="#0F377B"/>
<stop offset="0.8883" stop-color="#0F2252"/>
<stop offset="1" stop-color="#0E0E2B"/>
</linearGradient>
<linearGradient id="paint41_linear" x1="252.069" y1="293.315" x2="141.06" y2="322.567" gradientUnits="userSpaceOnUse">
<stop stop-color="#00E0FF"/>
<stop offset="1" stop-color="#009BFF"/>
</linearGradient>
<linearGradient id="paint42_linear" x1="254.859" y1="307.359" x2="161.918" y2="331.85" gradientUnits="userSpaceOnUse">
<stop stop-color="#1166D8"/>
<stop offset="0.1664" stop-color="#1164D4"/>
<stop offset="0.3188" stop-color="#115FC9"/>
<stop offset="0.4658" stop-color="#1055B7"/>
<stop offset="0.6095" stop-color="#10489C"/>
<stop offset="0.7508" stop-color="#0F377B"/>
<stop offset="0.8883" stop-color="#0F2252"/>
<stop offset="1" stop-color="#0E0E2B"/>
</linearGradient>
<linearGradient id="paint43_linear" x1="162.552" y1="287.72" x2="144.529" y2="292.469" gradientUnits="userSpaceOnUse">
<stop stop-color="#1166D8"/>
<stop offset="0.1664" stop-color="#1164D4"/>
<stop offset="0.3188" stop-color="#115FC9"/>
<stop offset="0.4658" stop-color="#1055B7"/>
<stop offset="0.6095" stop-color="#10489C"/>
<stop offset="0.7508" stop-color="#0F377B"/>
<stop offset="0.8883" stop-color="#0F2252"/>
<stop offset="1" stop-color="#0E0E2B"/>
</linearGradient>
<linearGradient id="paint44_linear" x1="205.367" y1="320.911" x2="177.051" y2="328.372" gradientUnits="userSpaceOnUse">
<stop stop-color="#1166D8"/>
<stop offset="0.1664" stop-color="#1164D4"/>
<stop offset="0.3188" stop-color="#115FC9"/>
<stop offset="0.4658" stop-color="#1055B7"/>
<stop offset="0.6095" stop-color="#10489C"/>
<stop offset="0.7508" stop-color="#0F377B"/>
<stop offset="0.8883" stop-color="#0F2252"/>
<stop offset="1" stop-color="#0E0E2B"/>
</linearGradient>
<linearGradient id="paint45_linear" x1="188.096" y1="297.625" x2="183.667" y2="298.792" gradientUnits="userSpaceOnUse">
<stop stop-color="#1166D8"/>
<stop offset="0.1664" stop-color="#1164D4"/>
<stop offset="0.3188" stop-color="#115FC9"/>
<stop offset="0.4658" stop-color="#1055B7"/>
<stop offset="0.6095" stop-color="#10489C"/>
<stop offset="0.7508" stop-color="#0F377B"/>
<stop offset="0.8883" stop-color="#0F2252"/>
<stop offset="1" stop-color="#0E0E2B"/>
</linearGradient>
<linearGradient id="paint46_linear" x1="229.781" y1="333.836" x2="227.844" y2="334.347" gradientUnits="userSpaceOnUse">
<stop stop-color="#1166D8"/>
<stop offset="0.1664" stop-color="#1164D4"/>
<stop offset="0.3188" stop-color="#115FC9"/>
<stop offset="0.4658" stop-color="#1055B7"/>
<stop offset="0.6095" stop-color="#10489C"/>
<stop offset="0.7508" stop-color="#0F377B"/>
<stop offset="0.8883" stop-color="#0F2252"/>
<stop offset="1" stop-color="#0E0E2B"/>
</linearGradient>
<linearGradient id="paint47_linear" x1="360.885" y1="264.622" x2="249.878" y2="293.873" gradientUnits="userSpaceOnUse">
<stop stop-color="#00E0FF"/>
<stop offset="1" stop-color="#009BFF"/>
</linearGradient>
<linearGradient id="paint48_linear" x1="347.303" y1="282.982" x2="254.362" y2="307.473" gradientUnits="userSpaceOnUse">
<stop stop-color="#1166D8"/>
<stop offset="0.1664" stop-color="#1164D4"/>
<stop offset="0.3188" stop-color="#115FC9"/>
<stop offset="0.4658" stop-color="#1055B7"/>
<stop offset="0.6095" stop-color="#10489C"/>
<stop offset="0.7508" stop-color="#0F377B"/>
<stop offset="0.8883" stop-color="#0F2252"/>
<stop offset="1" stop-color="#0E0E2B"/>
</linearGradient>
<linearGradient id="paint49_linear" x1="343.024" y1="240.131" x2="324.992" y2="244.883" gradientUnits="userSpaceOnUse">
<stop stop-color="#1166D8"/>
<stop offset="0.1664" stop-color="#1164D4"/>
<stop offset="0.3188" stop-color="#115FC9"/>
<stop offset="0.4658" stop-color="#1055B7"/>
<stop offset="0.6095" stop-color="#10489C"/>
<stop offset="0.7508" stop-color="#0F377B"/>
<stop offset="0.8883" stop-color="#0F2252"/>
<stop offset="1" stop-color="#0E0E2B"/>
</linearGradient>
<linearGradient id="paint50_linear" x1="332.421" y1="287.408" x2="304.104" y2="294.87" gradientUnits="userSpaceOnUse">
<stop stop-color="#1166D8"/>
<stop offset="0.1664" stop-color="#1164D4"/>
<stop offset="0.3188" stop-color="#115FC9"/>
<stop offset="0.4658" stop-color="#1055B7"/>
<stop offset="0.6095" stop-color="#10489C"/>
<stop offset="0.7508" stop-color="#0F377B"/>
<stop offset="0.8883" stop-color="#0F2252"/>
<stop offset="1" stop-color="#0E0E2B"/>
</linearGradient>
<linearGradient id="paint51_linear" x1="312.086" y1="264.931" x2="307.657" y2="266.098" gradientUnits="userSpaceOnUse">
<stop stop-color="#1166D8"/>
<stop offset="0.1664" stop-color="#1164D4"/>
<stop offset="0.3188" stop-color="#115FC9"/>
<stop offset="0.4658" stop-color="#1055B7"/>
<stop offset="0.6095" stop-color="#10489C"/>
<stop offset="0.7508" stop-color="#0F377B"/>
<stop offset="0.8883" stop-color="#0F2252"/>
<stop offset="1" stop-color="#0E0E2B"/>
</linearGradient>
<linearGradient id="paint52_linear" x1="291.17" y1="317.649" x2="289.223" y2="318.162" gradientUnits="userSpaceOnUse">
<stop stop-color="#1166D8"/>
<stop offset="0.1664" stop-color="#1164D4"/>
<stop offset="0.3188" stop-color="#115FC9"/>
<stop offset="0.4658" stop-color="#1055B7"/>
<stop offset="0.6095" stop-color="#10489C"/>
<stop offset="0.7508" stop-color="#0F377B"/>
<stop offset="0.8883" stop-color="#0F2252"/>
<stop offset="1" stop-color="#0E0E2B"/>
</linearGradient>
<linearGradient id="paint53_linear" x1="340.95" y1="364.986" x2="340.95" y2="-0.858503" gradientUnits="userSpaceOnUse">
<stop stop-color="#1166D8"/>
<stop offset="0.1664" stop-color="#1164D4"/>
<stop offset="0.3188" stop-color="#115FC9"/>
<stop offset="0.4658" stop-color="#1055B7"/>
<stop offset="0.6095" stop-color="#10489C"/>
<stop offset="0.7508" stop-color="#0F377B"/>
<stop offset="0.8883" stop-color="#0F2252"/>
<stop offset="1" stop-color="#0E0E2B"/>
</linearGradient>
<linearGradient id="paint54_linear" x1="416.663" y1="2.88524" x2="416.663" y2="363.647" gradientUnits="userSpaceOnUse">
<stop stop-color="#1166D8"/>
<stop offset="0.1664" stop-color="#1164D4"/>
<stop offset="0.3188" stop-color="#115FC9"/>
<stop offset="0.4658" stop-color="#1055B7"/>
<stop offset="0.6095" stop-color="#10489C"/>
<stop offset="0.7508" stop-color="#0F377B"/>
<stop offset="0.8883" stop-color="#0F2252"/>
<stop offset="1" stop-color="#0E0E2B"/>
</linearGradient>
<linearGradient id="paint55_linear" x1="376.58" y1="91.3596" x2="408.328" y2="247.16" gradientUnits="userSpaceOnUse">
<stop stop-color="#1166D8"/>
<stop offset="0.1664" stop-color="#1164D4"/>
<stop offset="0.3188" stop-color="#115FC9"/>
<stop offset="0.4658" stop-color="#1055B7"/>
<stop offset="0.6095" stop-color="#10489C"/>
<stop offset="0.7508" stop-color="#0F377B"/>
<stop offset="0.8883" stop-color="#0F2252"/>
<stop offset="1" stop-color="#0E0E2B"/>
</linearGradient>
<linearGradient id="paint56_linear" x1="316.255" y1="148.289" x2="276.814" y2="236.76" gradientUnits="userSpaceOnUse">
<stop stop-color="#1166D8"/>
<stop offset="0.1664" stop-color="#1164D4"/>
<stop offset="0.3188" stop-color="#115FC9"/>
<stop offset="0.4658" stop-color="#1055B7"/>
<stop offset="0.6095" stop-color="#10489C"/>
<stop offset="0.7508" stop-color="#0F377B"/>
<stop offset="0.8883" stop-color="#0F2252"/>
<stop offset="1" stop-color="#0E0E2B"/>
</linearGradient>
<linearGradient id="paint57_linear" x1="311.299" y1="-16.8277" x2="350.739" y2="58.1779" gradientUnits="userSpaceOnUse">
<stop stop-color="#1166D8"/>
<stop offset="0.1664" stop-color="#1164D4"/>
<stop offset="0.3188" stop-color="#115FC9"/>
<stop offset="0.4658" stop-color="#1055B7"/>
<stop offset="0.6095" stop-color="#10489C"/>
<stop offset="0.7508" stop-color="#0F377B"/>
<stop offset="0.8883" stop-color="#0F2252"/>
<stop offset="1" stop-color="#0E0E2B"/>
</linearGradient>
<linearGradient id="paint58_linear" x1="393.367" y1="189.404" x2="340.465" y2="117.29" gradientUnits="userSpaceOnUse">
<stop stop-color="#00E0FF"/>
<stop offset="1" stop-color="#009BFF"/>
</linearGradient>
<linearGradient id="paint59_linear" x1="340.229" y1="121.181" x2="340.229" y2="-0.285008" gradientUnits="userSpaceOnUse">
<stop stop-color="#00E0FF"/>
<stop offset="1" stop-color="#009BFF"/>
</linearGradient>
<linearGradient id="paint60_linear" x1="277.889" y1="82.9214" x2="343.294" y2="167.534" gradientUnits="userSpaceOnUse">
<stop stop-color="#00E0FF"/>
<stop offset="1" stop-color="#009BFF"/>
</linearGradient>
<linearGradient id="paint61_linear" x1="315.829" y1="131.953" x2="311.981" y2="271.407" gradientUnits="userSpaceOnUse">
<stop stop-color="#00E0FF"/>
<stop offset="1" stop-color="#009BFF"/>
</linearGradient>
<linearGradient id="paint62_linear" x1="382.636" y1="370.002" x2="282.601" y2="223.847" gradientUnits="userSpaceOnUse">
<stop stop-color="#00E0FF"/>
<stop offset="1" stop-color="#009BFF"/>
</linearGradient>
<linearGradient id="paint63_linear" x1="317.773" y1="346.965" x2="270.64" y2="270.039" gradientUnits="userSpaceOnUse">
<stop stop-color="#1166D8"/>
<stop offset="0.1664" stop-color="#1164D4"/>
<stop offset="0.3188" stop-color="#115FC9"/>
<stop offset="0.4658" stop-color="#1055B7"/>
<stop offset="0.6095" stop-color="#10489C"/>
<stop offset="0.7508" stop-color="#0F377B"/>
<stop offset="0.8883" stop-color="#0F2252"/>
<stop offset="1" stop-color="#0E0E2B"/>
</linearGradient>
<linearGradient id="paint64_linear" x1="294.922" y1="328.709" x2="381.468" y2="384.464" gradientUnits="userSpaceOnUse">
<stop stop-color="#00E0FF"/>
<stop offset="1" stop-color="#009BFF"/>
</linearGradient>
<linearGradient id="paint65_linear" x1="272.449" y1="364.986" x2="272.449" y2="-0.858503" gradientUnits="userSpaceOnUse">
<stop stop-color="#00E0FF"/>
<stop offset="0.2489" stop-color="#00DCFF"/>
<stop offset="0.4853" stop-color="#00D1FF"/>
<stop offset="0.7166" stop-color="#00BEFF"/>
<stop offset="0.9436" stop-color="#00A3FF"/>
<stop offset="1" stop-color="#009BFF"/>
</linearGradient>
<linearGradient id="paint66_linear" x1="267.161" y1="157.247" x2="267.161" y2="126.88" gradientUnits="userSpaceOnUse">
<stop stop-color="#FFC975"/>
<stop offset="1" stop-color="#FF9F65"/>
</linearGradient>
<linearGradient id="paint67_linear" x1="343.835" y1="271.215" x2="343.835" y2="146.857" gradientUnits="userSpaceOnUse">
<stop stop-color="#1166D8"/>
<stop offset="0.1664" stop-color="#1164D4"/>
<stop offset="0.3188" stop-color="#115FC9"/>
<stop offset="0.4658" stop-color="#1055B7"/>
<stop offset="0.6095" stop-color="#10489C"/>
<stop offset="0.7508" stop-color="#0F377B"/>
<stop offset="0.8883" stop-color="#0F2252"/>
<stop offset="1" stop-color="#0E0E2B"/>
</linearGradient>
<linearGradient id="paint68_linear" x1="362.583" y1="271.215" x2="362.583" y2="178.669" gradientUnits="userSpaceOnUse">
<stop stop-color="#00E0FF"/>
<stop offset="1" stop-color="#009BFF"/>
</linearGradient>
<linearGradient id="paint69_linear" x1="390.704" y1="364.986" x2="390.704" y2="190.017" gradientUnits="userSpaceOnUse">
<stop stop-color="#00E0FF"/>
<stop offset="1" stop-color="#009BFF"/>
</linearGradient>
<linearGradient id="paint70_linear" x1="368.351" y1="364.986" x2="368.351" y2="190.017" gradientUnits="userSpaceOnUse">
<stop stop-color="#1166D8"/>
<stop offset="0.1664" stop-color="#1164D4"/>
<stop offset="0.3188" stop-color="#115FC9"/>
<stop offset="0.4658" stop-color="#1055B7"/>
<stop offset="0.6095" stop-color="#10489C"/>
<stop offset="0.7508" stop-color="#0F377B"/>
<stop offset="0.8883" stop-color="#0F2252"/>
<stop offset="1" stop-color="#0E0E2B"/>
</linearGradient>
<linearGradient id="paint71_linear" x1="417.384" y1="2.88524" x2="417.384" y2="363.647" gradientUnits="userSpaceOnUse">
<stop stop-color="#FFC975"/>
<stop offset="1" stop-color="#FF9F65"/>
</linearGradient>
<linearGradient id="paint72_linear" x1="302.251" y1="381.188" x2="142.761" y2="57.8901" gradientUnits="userSpaceOnUse">
<stop stop-color="#00E0FF"/>
<stop offset="1" stop-color="#0072FF"/>
</linearGradient>
<linearGradient id="paint73_linear" x1="157.357" y1="229.749" x2="305.943" y2="229.749" gradientUnits="userSpaceOnUse">
<stop stop-color="white"/>
<stop offset="1" stop-color="#DAE8FF"/>
</linearGradient>
<linearGradient id="paint74_linear" x1="177.294" y1="191.369" x2="280.597" y2="192.844" gradientUnits="userSpaceOnUse">
<stop stop-color="#FFC975"/>
<stop offset="1" stop-color="#FF9F65"/>
</linearGradient>
<linearGradient id="paint75_linear" x1="182.401" y1="187.041" x2="285.704" y2="188.516" gradientUnits="userSpaceOnUse">
<stop stop-color="#FFC975"/>
<stop offset="1" stop-color="#FF9F65"/>
</linearGradient>
<linearGradient id="paint76_linear" x1="189.552" y1="181.271" x2="292.855" y2="182.746" gradientUnits="userSpaceOnUse">
<stop stop-color="#FFC975"/>
<stop offset="1" stop-color="#FF9F65"/>
</linearGradient>
<linearGradient id="paint77_linear" x1="260.911" y1="149.487" x2="207.752" y2="226.401" gradientUnits="userSpaceOnUse">
<stop stop-color="#1166D8"/>
<stop offset="0.1664" stop-color="#1164D4"/>
<stop offset="0.3188" stop-color="#115FC9"/>
<stop offset="0.4658" stop-color="#1055B7"/>
<stop offset="0.6095" stop-color="#10489C"/>
<stop offset="0.7508" stop-color="#0F377B"/>
<stop offset="0.8883" stop-color="#0F2252"/>
<stop offset="1" stop-color="#0E0E2B"/>
</linearGradient>
<linearGradient id="paint78_linear" x1="263.04" y1="147.146" x2="208.213" y2="226.474" gradientUnits="userSpaceOnUse">
<stop stop-color="white"/>
<stop offset="1" stop-color="#DAE8FF"/>
</linearGradient>
<linearGradient id="paint79_linear" x1="170.046" y1="278.206" x2="286.898" y2="279.875" gradientUnits="userSpaceOnUse">
<stop stop-color="#FFC975"/>
<stop offset="1" stop-color="#FF9F65"/>
</linearGradient>
<linearGradient id="paint80_linear" x1="175.83" y1="273.879" x2="292.682" y2="275.547" gradientUnits="userSpaceOnUse">
<stop stop-color="#FFC975"/>
<stop offset="1" stop-color="#FF9F65"/>
</linearGradient>
<linearGradient id="paint81_linear" x1="183.927" y1="268.108" x2="300.779" y2="269.777" gradientUnits="userSpaceOnUse">
<stop stop-color="#FFC975"/>
<stop offset="1" stop-color="#FF9F65"/>
</linearGradient>
<linearGradient id="paint82_linear" x1="197.866" y1="271.913" x2="292.492" y2="273.265" gradientUnits="userSpaceOnUse">
<stop stop-color="white"/>
<stop offset="1" stop-color="#DAE8FF"/>
</linearGradient>
<linearGradient id="paint83_linear" x1="362.904" y1="195.904" x2="358.767" y2="164.889" gradientUnits="userSpaceOnUse">
<stop stop-color="white"/>
<stop offset="0.6523" stop-color="#A1E6FF"/>
<stop offset="1" stop-color="#28C7FF"/>
</linearGradient>
<linearGradient id="paint84_linear" x1="361.005" y1="196.159" x2="356.868" y2="165.143" gradientUnits="userSpaceOnUse">
<stop stop-color="white"/>
<stop offset="0.6523" stop-color="#A1E6FF"/>
<stop offset="1" stop-color="#28C7FF"/>
</linearGradient>
<linearGradient id="paint85_linear" x1="312.821" y1="257.81" x2="293.446" y2="330.673" gradientUnits="userSpaceOnUse">
<stop stop-color="#1166D8"/>
<stop offset="0.3017" stop-color="#1164D4"/>
<stop offset="0.5779" stop-color="#125CC9"/>
<stop offset="0.8433" stop-color="#1351B7"/>
<stop offset="1" stop-color="#1447A8"/>
</linearGradient>
<linearGradient id="paint86_linear" x1="395.908" y1="295.767" x2="438.124" y2="295.767" gradientUnits="userSpaceOnUse">
<stop stop-color="#1166D8"/>
<stop offset="0.3017" stop-color="#1164D4"/>
<stop offset="0.5779" stop-color="#125CC9"/>
<stop offset="0.8433" stop-color="#1351B7"/>
<stop offset="1" stop-color="#1447A8"/>
</linearGradient>
<linearGradient id="paint87_linear" x1="363.529" y1="191.853" x2="360.082" y2="249.747" gradientUnits="userSpaceOnUse">
<stop stop-color="white"/>
<stop offset="0.6523" stop-color="#A1E6FF"/>
<stop offset="1" stop-color="#28C7FF"/>
</linearGradient>
<linearGradient id="paint88_linear" x1="365.352" y1="241.619" x2="361.216" y2="200.966" gradientUnits="userSpaceOnUse">
<stop stop-color="#1166D8"/>
<stop offset="0.1664" stop-color="#1164D4"/>
<stop offset="0.3188" stop-color="#115FC9"/>
<stop offset="0.4658" stop-color="#1055B7"/>
<stop offset="0.6095" stop-color="#10489C"/>
<stop offset="0.7508" stop-color="#0F377B"/>
<stop offset="0.8883" stop-color="#0F2252"/>
<stop offset="1" stop-color="#0E0E2B"/>
</linearGradient>
<linearGradient id="paint89_linear" x1="367.333" y1="273.386" x2="342.882" y2="365.334" gradientUnits="userSpaceOnUse">
<stop stop-color="white"/>
<stop offset="0.6523" stop-color="#A1E6FF"/>
<stop offset="1" stop-color="#28C7FF"/>
</linearGradient>
<linearGradient id="paint90_linear" x1="353.835" y1="351.042" x2="362.796" y2="285.585" gradientUnits="userSpaceOnUse">
<stop stop-color="#1166D8"/>
<stop offset="0.1664" stop-color="#1164D4"/>
<stop offset="0.3188" stop-color="#115FC9"/>
<stop offset="0.4658" stop-color="#1055B7"/>
<stop offset="0.6095" stop-color="#10489C"/>
<stop offset="0.7508" stop-color="#0F377B"/>
<stop offset="0.8883" stop-color="#0F2252"/>
<stop offset="1" stop-color="#0E0E2B"/>
</linearGradient>
<linearGradient id="paint91_linear" x1="317.452" y1="265.37" x2="404.07" y2="265.37" gradientUnits="userSpaceOnUse">
<stop stop-color="#1166D8"/>
<stop offset="0.1664" stop-color="#1164D4"/>
<stop offset="0.3188" stop-color="#115FC9"/>
<stop offset="0.4658" stop-color="#1055B7"/>
<stop offset="0.6095" stop-color="#10489C"/>
<stop offset="0.7508" stop-color="#0F377B"/>
<stop offset="0.8883" stop-color="#0F2252"/>
<stop offset="1" stop-color="#0E0E2B"/>
</linearGradient>
</defs>
</svg>
