<svg width="116" height="86" viewBox="0 0 116 86" fill="none" xmlns="http://www.w3.org/2000/svg">
<g clip-path="url(#clip0)">
<path opacity="0.32" d="M97 85.1H4.3C2 85.1 0 83.2 0 80.8V16.2C0 13.9 1.9 12 4.3 12H97C99.3 12 101.3 13.9 101.3 16.3V81C101.3 83.2 99.3 85.1 97 85.1Z" fill="url(#paint0_linear)"/>
<path opacity="0.32" d="M103 80H10.3C7.9 80 6 78.1 6 75.7V11.1C6 8.80005 7.9 6.80005 10.3 6.80005H103C105.3 6.80005 107.3 8.70005 107.3 11.1V75.8C107.3 78.1001 105.4 80 103 80Z" fill="url(#paint1_linear)"/>
<path d="M111.5 73.2H18.7C16.4 73.2 14.4 71.3 14.4 68.9V4.3C14.4 2 16.3 0 18.7 0H111.5C113.8 0 115.8 1.9 115.8 4.3V69C115.7 71.3 113.8 73.2 111.5 73.2Z" fill="url(#paint2_linear)"/>
<path d="M81.6 20.9C78.8 20.6 76.9 19 75.7 17H46.2C45.9 19.7 44.4 22.3 41.8 23.5L46.5 56.2C48.9 56.5 50.7 57.6 51.9 59.2L80.2 58C81.2 56.2 82.8 54.8 85 54.2L81.6 20.9Z" fill="url(#paint3_linear)"/>
<path d="M65.5 16.9C70.3 16.9 73.9 20.6 73.9 25.3C73.9 30 70.2 33.7 65.5 33.7C60.7 33.7 57.1 30 57.1 25.3C57.1 20.6 60.7 16.9 65.5 16.9ZM65.5 56.8C58.5 56.8 52.3 53.1 48.7 47.8C48.7 42.2 59.9 39.1 65.5 39.1C71.1 39.1 82.3 42.2 82.3 47.8C78.7 53.2 72.5 56.8 65.5 56.8ZM65.5 8.5C50.1 8.5 37.4 21.1 37.4 36.6C37.4 52.1 50 64.7 65.5 64.7C81 64.7 93.6 52 93.6 36.6C93.6 21.2 81 8.5 65.5 8.5Z" fill="url(#paint4_linear)"/>
</g>
<defs>
<linearGradient id="paint0_linear" x1="-7.2823" y1="47.673" x2="114.619" y2="49.4144" gradientUnits="userSpaceOnUse">
<stop stop-color="#FFC975"/>
<stop offset="1" stop-color="#FF9F65"/>
</linearGradient>
<linearGradient id="paint1_linear" x1="-1.2552" y1="42.5677" x2="120.646" y2="44.3091" gradientUnits="userSpaceOnUse">
<stop stop-color="#FFC975"/>
<stop offset="1" stop-color="#FF9F65"/>
</linearGradient>
<linearGradient id="paint2_linear" x1="7.1827" y1="35.7606" x2="129.084" y2="37.5021" gradientUnits="userSpaceOnUse">
<stop stop-color="#FFC975"/>
<stop offset="1" stop-color="#FF9F65"/>
</linearGradient>
<linearGradient id="paint3_linear" x1="91.3881" y1="-1.7319" x2="28.6881" y2="89.0182" gradientUnits="userSpaceOnUse">
<stop stop-color="#1166D8"/>
<stop offset="0.1664" stop-color="#1164D4"/>
<stop offset="0.3188" stop-color="#115FC9"/>
<stop offset="0.4658" stop-color="#1055B7"/>
<stop offset="0.6095" stop-color="#10489C"/>
<stop offset="0.7508" stop-color="#0F377B"/>
<stop offset="0.8883" stop-color="#0F2252"/>
<stop offset="1" stop-color="#0E0E2B"/>
</linearGradient>
<linearGradient id="paint4_linear" x1="93.9011" y1="-4.493" x2="29.234" y2="89.104" gradientUnits="userSpaceOnUse">
<stop stop-color="white"/>
<stop offset="1" stop-color="#DAE8FF"/>
</linearGradient>
<clipPath id="clip0">
<rect width="115.7" height="85.1" fill="white"/>
</clipPath>
</defs>
</svg>
