<svg width="232" height="212" viewBox="0 0 232 212" fill="none" xmlns="http://www.w3.org/2000/svg">
<path d="M51.354 197.125C51.354 197.125 57.5776 60.5429 118.619 26.6134C164.262 1.2591 199.607 18.8072 214.553 29.2582C222.402 34.672 227.482 43.1954 228.46 52.6792C229.796 67.2074 221.541 87.0913 172.359 96.1651C89.9641 111.374 66.4062 164.128 66.4062 164.128L51.354 197.125Z" fill="url(#paint0_linear)"/>
<path d="M50.8916 197.034C57.2586 161.113 69.2182 130.729 86.3374 106.681C100.073 87.4678 117.128 72.2421 137.097 61.4924C171.073 43.1994 202.071 44.1378 202.382 44.164L202.36 45.05C202.049 45.0238 171.258 44.1029 137.499 62.3097C106.312 79.1139 66.1618 116.16 51.7689 197.16L50.8916 197.034Z" fill="url(#paint1_linear)"/>
<path d="M134.87 63.7596L134.183 63.2317C144.235 49.9235 133.053 34.462 132.911 34.2933L133.633 33.7795C133.775 33.9482 145.332 49.9114 134.87 63.7596Z" fill="url(#paint2_linear)"/>
<path d="M101.839 89.4445L101.156 88.8647C102.943 86.8737 105.174 85.808 107.737 85.7626C115.111 85.6522 122.841 93.7198 123.178 94.0615L122.551 94.6877C122.451 94.6271 114.721 86.5595 107.767 86.653C105.467 86.6684 103.457 87.5959 101.839 89.4445Z" fill="url(#paint3_linear)"/>
<path d="M86.5061 106.539C86.7965 105.571 86.7195 104.624 86.2233 103.695C84.1389 99.9152 76.123 97.7256 76.0711 97.7213L76.3009 96.8527C76.6596 96.9351 84.7748 99.1853 86.9887 103.289C87.623 104.439 87.7344 105.598 87.3703 106.821L86.5061 106.539Z" fill="url(#paint4_linear)"/>
<path d="M49.4908 197.542C49.4908 197.542 125.387 123.653 136.771 129.887C142.163 132.848 142.81 139.432 141.979 145.577C140.849 153.421 137.307 160.748 131.804 166.553C120.5 178.607 94.0554 199.884 49.4908 197.542Z" fill="url(#paint5_linear)"/>
<path d="M50.325 197.56L50.3474 196.674C60.0419 196.916 129.383 146.919 130.105 146.405L130.619 147.128C127.782 149.187 60.3351 197.776 50.325 197.56Z" fill="url(#paint6_linear)"/>
<path d="M130.756 159.152L120.005 155.322L120.282 154.51L131.085 158.344L130.756 159.152Z" fill="url(#paint7_linear)"/>
<path d="M91.9683 173.802L92.25 172.938L109.405 178.247L109.123 179.111L91.9683 173.802Z" fill="url(#paint8_linear)"/>
<path d="M104.217 164.805L105.534 155.357L106.412 155.483L105.094 164.931L104.217 164.805Z" fill="url(#paint9_linear)"/>
<path d="M75.5093 183.802L78.0232 175.657L78.8874 175.939L76.3735 184.084L75.5093 183.802Z" fill="url(#paint10_linear)"/>
<path d="M50.8086 198.019C50.8086 198.019 38.6187 92.7923 25.8615 90.4647C19.794 89.3271 15.1133 94.0516 11.9018 99.3177C7.82873 106.13 5.90723 114.064 6.54885 121.953C7.66286 138.5 14.7922 171.692 50.8086 198.019Z" fill="url(#paint11_linear)"/>
<path d="M50.1218 197.491C42.2304 191.342 20.6226 111.125 19.7092 107.705L20.5652 107.464C20.8065 108.32 43.0045 190.833 50.6497 196.804L50.1218 197.491Z" fill="url(#paint12_linear)"/>
<path d="M22.7885 120.761L11.9862 116.927L12.2679 116.062L23.0702 119.897L22.7885 120.761Z" fill="url(#paint13_linear)"/>
<path d="M32.8364 152.789L16.1713 146.006L16.5005 145.198L33.1699 151.929L32.8364 152.789Z" fill="url(#paint14_linear)"/>
<path d="M29.0108 138.051L28.2678 137.57L33.2367 129.423L33.9797 129.903L29.0108 138.051Z" fill="url(#paint15_linear)"/>
<path d="M39.3 170.934L38.4401 170.601L41.6626 162.724L42.4705 163.053L39.3 170.934Z" fill="url(#paint16_linear)"/>
<defs>
<linearGradient id="paint0_linear" x1="72.4435" y1="89.9584" x2="201.658" y2="135.918" gradientUnits="userSpaceOnUse">
<stop stop-color="#00E0FF"/>
<stop offset="1" stop-color="#009BFF"/>
</linearGradient>
<linearGradient id="paint1_linear" x1="79.9115" y1="103.974" x2="170.044" y2="136.032" gradientUnits="userSpaceOnUse">
<stop stop-color="#1166D8"/>
<stop offset="0.1664" stop-color="#1164D4"/>
<stop offset="0.3188" stop-color="#115FC9"/>
<stop offset="0.4658" stop-color="#1055B7"/>
<stop offset="0.6095" stop-color="#10489C"/>
<stop offset="0.7508" stop-color="#0F377B"/>
<stop offset="0.8883" stop-color="#0F2252"/>
<stop offset="1" stop-color="#0E0E2B"/>
</linearGradient>
<linearGradient id="paint2_linear" x1="128.506" y1="46.7016" x2="140.507" y2="50.9703" gradientUnits="userSpaceOnUse">
<stop stop-color="#1166D8"/>
<stop offset="0.1664" stop-color="#1164D4"/>
<stop offset="0.3188" stop-color="#115FC9"/>
<stop offset="0.4658" stop-color="#1055B7"/>
<stop offset="0.6095" stop-color="#10489C"/>
<stop offset="0.7508" stop-color="#0F377B"/>
<stop offset="0.8883" stop-color="#0F2252"/>
<stop offset="1" stop-color="#0E0E2B"/>
</linearGradient>
<linearGradient id="paint3_linear" x1="102.092" y1="86.2458" x2="123.284" y2="93.7833" gradientUnits="userSpaceOnUse">
<stop stop-color="#1166D8"/>
<stop offset="0.1664" stop-color="#1164D4"/>
<stop offset="0.3188" stop-color="#115FC9"/>
<stop offset="0.4658" stop-color="#1055B7"/>
<stop offset="0.6095" stop-color="#10489C"/>
<stop offset="0.7508" stop-color="#0F377B"/>
<stop offset="0.8883" stop-color="#0F2252"/>
<stop offset="1" stop-color="#0E0E2B"/>
</linearGradient>
<linearGradient id="paint4_linear" x1="75.3309" y1="99.5184" x2="88.3023" y2="104.132" gradientUnits="userSpaceOnUse">
<stop stop-color="#1166D8"/>
<stop offset="0.1664" stop-color="#1164D4"/>
<stop offset="0.3188" stop-color="#115FC9"/>
<stop offset="0.4658" stop-color="#1055B7"/>
<stop offset="0.6095" stop-color="#10489C"/>
<stop offset="0.7508" stop-color="#0F377B"/>
<stop offset="0.8883" stop-color="#0F2252"/>
<stop offset="1" stop-color="#0E0E2B"/>
</linearGradient>
<linearGradient id="paint5_linear" x1="65.0519" y1="153.725" x2="131.479" y2="177.352" gradientUnits="userSpaceOnUse">
<stop stop-color="#00E0FF"/>
<stop offset="1" stop-color="#009BFF"/>
</linearGradient>
<linearGradient id="paint6_linear" x1="62.621" y1="162.172" x2="118.236" y2="181.954" gradientUnits="userSpaceOnUse">
<stop stop-color="#1166D8"/>
<stop offset="0.1664" stop-color="#1164D4"/>
<stop offset="0.3188" stop-color="#115FC9"/>
<stop offset="0.4658" stop-color="#1055B7"/>
<stop offset="0.6095" stop-color="#10489C"/>
<stop offset="0.7508" stop-color="#0F377B"/>
<stop offset="0.8883" stop-color="#0F2252"/>
<stop offset="1" stop-color="#0E0E2B"/>
</linearGradient>
<linearGradient id="paint7_linear" x1="120.125" y1="154.914" x2="130.91" y2="158.75" gradientUnits="userSpaceOnUse">
<stop stop-color="#1166D8"/>
<stop offset="0.1664" stop-color="#1164D4"/>
<stop offset="0.3188" stop-color="#115FC9"/>
<stop offset="0.4658" stop-color="#1055B7"/>
<stop offset="0.6095" stop-color="#10489C"/>
<stop offset="0.7508" stop-color="#0F377B"/>
<stop offset="0.8883" stop-color="#0F2252"/>
<stop offset="1" stop-color="#0E0E2B"/>
</linearGradient>
<linearGradient id="paint8_linear" x1="92.2123" y1="173.013" x2="109.157" y2="179.04" gradientUnits="userSpaceOnUse">
<stop stop-color="#1166D8"/>
<stop offset="0.1664" stop-color="#1164D4"/>
<stop offset="0.3188" stop-color="#115FC9"/>
<stop offset="0.4658" stop-color="#1055B7"/>
<stop offset="0.6095" stop-color="#10489C"/>
<stop offset="0.7508" stop-color="#0F377B"/>
<stop offset="0.8883" stop-color="#0F2252"/>
<stop offset="1" stop-color="#0E0E2B"/>
</linearGradient>
<linearGradient id="paint9_linear" x1="103.981" y1="159.657" x2="106.632" y2="160.6" gradientUnits="userSpaceOnUse">
<stop stop-color="#1166D8"/>
<stop offset="0.1664" stop-color="#1164D4"/>
<stop offset="0.3188" stop-color="#115FC9"/>
<stop offset="0.4658" stop-color="#1055B7"/>
<stop offset="0.6095" stop-color="#10489C"/>
<stop offset="0.7508" stop-color="#0F377B"/>
<stop offset="0.8883" stop-color="#0F2252"/>
<stop offset="1" stop-color="#0E0E2B"/>
</linearGradient>
<linearGradient id="paint10_linear" x1="76.6049" y1="179.663" x2="77.7641" y2="180.075" gradientUnits="userSpaceOnUse">
<stop stop-color="#1166D8"/>
<stop offset="0.1664" stop-color="#1164D4"/>
<stop offset="0.3188" stop-color="#115FC9"/>
<stop offset="0.4658" stop-color="#1055B7"/>
<stop offset="0.6095" stop-color="#10489C"/>
<stop offset="0.7508" stop-color="#0F377B"/>
<stop offset="0.8883" stop-color="#0F2252"/>
<stop offset="1" stop-color="#0E0E2B"/>
</linearGradient>
<linearGradient id="paint11_linear" x1="-0.0652867" y1="130.563" x2="66.36" y2="154.19" gradientUnits="userSpaceOnUse">
<stop stop-color="#00E0FF"/>
<stop offset="1" stop-color="#009BFF"/>
</linearGradient>
<linearGradient id="paint12_linear" x1="7.30077" y1="142.496" x2="62.9159" y2="162.277" gradientUnits="userSpaceOnUse">
<stop stop-color="#1166D8"/>
<stop offset="0.1664" stop-color="#1164D4"/>
<stop offset="0.3188" stop-color="#115FC9"/>
<stop offset="0.4658" stop-color="#1055B7"/>
<stop offset="0.6095" stop-color="#10489C"/>
<stop offset="0.7508" stop-color="#0F377B"/>
<stop offset="0.8883" stop-color="#0F2252"/>
<stop offset="1" stop-color="#0E0E2B"/>
</linearGradient>
<linearGradient id="paint13_linear" x1="12.1268" y1="116.501" x2="22.9174" y2="120.339" gradientUnits="userSpaceOnUse">
<stop stop-color="#1166D8"/>
<stop offset="0.1664" stop-color="#1164D4"/>
<stop offset="0.3188" stop-color="#115FC9"/>
<stop offset="0.4658" stop-color="#1055B7"/>
<stop offset="0.6095" stop-color="#10489C"/>
<stop offset="0.7508" stop-color="#0F377B"/>
<stop offset="0.8883" stop-color="#0F2252"/>
<stop offset="1" stop-color="#0E0E2B"/>
</linearGradient>
<linearGradient id="paint14_linear" x1="16.1807" y1="145.97" x2="33.1255" y2="151.997" gradientUnits="userSpaceOnUse">
<stop stop-color="#1166D8"/>
<stop offset="0.1664" stop-color="#1164D4"/>
<stop offset="0.3188" stop-color="#115FC9"/>
<stop offset="0.4658" stop-color="#1055B7"/>
<stop offset="0.6095" stop-color="#10489C"/>
<stop offset="0.7508" stop-color="#0F377B"/>
<stop offset="0.8883" stop-color="#0F2252"/>
<stop offset="1" stop-color="#0E0E2B"/>
</linearGradient>
<linearGradient id="paint15_linear" x1="29.7835" y1="133.266" x2="32.4337" y2="134.209" gradientUnits="userSpaceOnUse">
<stop stop-color="#1166D8"/>
<stop offset="0.1664" stop-color="#1164D4"/>
<stop offset="0.3188" stop-color="#115FC9"/>
<stop offset="0.4658" stop-color="#1055B7"/>
<stop offset="0.6095" stop-color="#10489C"/>
<stop offset="0.7508" stop-color="#0F377B"/>
<stop offset="0.8883" stop-color="#0F2252"/>
<stop offset="1" stop-color="#0E0E2B"/>
</linearGradient>
<linearGradient id="paint16_linear" x1="39.8688" y1="166.597" x2="41.0338" y2="167.011" gradientUnits="userSpaceOnUse">
<stop stop-color="#1166D8"/>
<stop offset="0.1664" stop-color="#1164D4"/>
<stop offset="0.3188" stop-color="#115FC9"/>
<stop offset="0.4658" stop-color="#1055B7"/>
<stop offset="0.6095" stop-color="#10489C"/>
<stop offset="0.7508" stop-color="#0F377B"/>
<stop offset="0.8883" stop-color="#0F2252"/>
<stop offset="1" stop-color="#0E0E2B"/>
</linearGradient>
</defs>
</svg>
