<svg width="115" height="86" viewBox="0 0 115 86" fill="none" xmlns="http://www.w3.org/2000/svg">
<g clip-path="url(#clip0)">
<path opacity="0.32" d="M97 85.1H4.3C2 85.1 0 83.2 0 80.8V16.2C0 13.9 1.9 12 4.3 12H97C99.3 12 101.3 13.9 101.3 16.3V81C101.3 83.2 99.3 85.1 97 85.1Z" fill="url(#paint0_linear)"/>
<path opacity="0.32" d="M103 80H10.3C7.9 80 6 78.1 6 75.7V11.1C6 8.80005 7.9 6.80005 10.3 6.80005H103C105.3 6.80005 107.3 8.70005 107.3 11.1V75.8C107.3 78.1001 105.4 80 103 80Z" fill="url(#paint1_linear)"/>
<path d="M109.9 73.2H17.1C14.8 73.2 12.8 71.3 12.8 68.9V4.3C12.8 2 14.7 0 17.1 0H109.9C112.2 0 114.2 1.9 114.2 4.3V69C114.1 71.3 112.2 73.2 109.9 73.2Z" fill="url(#paint2_linear)"/>
<path d="M86.1 33.9C86 33.3 85.3 32.8 84.6 32.8C82.5 32.8 80.7 31.6 79.9 29.7C79.1 27.8 79.6 25.5 81.2 24.1C81.7 23.7 81.7 22.9 81.3 22.4C80.2 21 79 19.8 77.7 18.8C77.2 18.4 76.4 18.4 76 18.9C74.6 20.4 72.2 21 70.3 20.2C68.3 19.4 67.1 17.4 67.2 15.3C67.2 14.6 66.8 14 66.1 14C64.4 13.8 62.7 13.8 61 14C60.3 14.1 59.9 14.6 59.9 15.3C60 17.4 58.7 19.4 56.8 20.2C54.9 21 52.5 20.4 51.2 18.9C50.8 18.4 50 18.3 49.5 18.8C48.1 19.9 46.9 21.1 45.8 22.4C45.4 22.9 45.4 23.7 45.9 24.1C47.5 25.5 48 27.8 47.2 29.8C46.4 31.7 44.5 32.9 42.2 32.9C41.5 32.9 41 33.4 40.9 34C40.7 35.7 40.7 37.5 40.9 39.2C41 39.8 41.7 40.3 42.4 40.3C44.4 40.2 46.3 41.5 47.1 43.4C47.9 45.3 47.4 47.6 45.8 49C45.3 49.4 45.3 50.2 45.7 50.7C46.8 52 48 53.3 49.3 54.3C49.8 54.7 50.6 54.7 51 54.2C52.4 52.7 54.8 52.1 56.7 52.9C58.7 53.7 59.9 55.7 59.8 57.8C59.8 58.5 60.3 59.1 60.9 59.1C61.8 59.2 62.6 59.3 63.5 59.3C64.3 59.3 65.2 59.3 66 59.2C66.7 59.1 67.1 58.6 67.1 57.9C67 55.8 68.3 53.8 70.2 53C72.1 52.2 74.5 52.8 75.8 54.3C76.3 54.8 77 54.8 77.5 54.4C78.9 53.3 80.1 52.1 81.2 50.8C81.6 50.3 81.6 49.5 81.1 49.1C79.5 47.7 79 45.4 79.8 43.4C80.6 41.6 82.4 40.3 84.5 40.3H84.8C85.5 40.4 86.1 39.9 86.1 39.2C86.3 37.3 86.3 35.6 86.1 33.9ZM63.5 44C59.3 44 55.9 40.6 55.9 36.4C55.9 32.2 59.3 28.8 63.5 28.8C67.7 28.8 71.1 32.2 71.1 36.4C71.1 40.6 67.7 44 63.5 44Z" fill="url(#paint3_linear)"/>
</g>
<defs>
<linearGradient id="paint0_linear" x1="-7.2823" y1="47.673" x2="114.619" y2="49.4144" gradientUnits="userSpaceOnUse">
<stop stop-color="#9CFF75"/>
<stop offset="1" stop-color="#65DFE8"/>
</linearGradient>
<linearGradient id="paint1_linear" x1="-1.2552" y1="42.5677" x2="120.646" y2="44.3091" gradientUnits="userSpaceOnUse">
<stop stop-color="#9CFF75"/>
<stop offset="1" stop-color="#65DFE8"/>
</linearGradient>
<linearGradient id="paint2_linear" x1="5.5958" y1="35.7606" x2="127.497" y2="37.5021" gradientUnits="userSpaceOnUse">
<stop stop-color="#9CFF75"/>
<stop offset="1" stop-color="#65DFE8"/>
</linearGradient>
<linearGradient id="paint3_linear" x1="38.515" y1="62.5138" x2="94.6732" y2="3.80288" gradientUnits="userSpaceOnUse">
<stop stop-color="#1166D8"/>
<stop offset="0.1664" stop-color="#1164D4"/>
<stop offset="0.3188" stop-color="#115FC9"/>
<stop offset="0.4658" stop-color="#1055B7"/>
<stop offset="0.6095" stop-color="#10489C"/>
<stop offset="0.7508" stop-color="#0F377B"/>
<stop offset="0.8883" stop-color="#0F2252"/>
<stop offset="1" stop-color="#0E0E2B"/>
</linearGradient>
<clipPath id="clip0">
<rect width="114.1" height="85.1" fill="white"/>
</clipPath>
</defs>
</svg>
