<svg width="111" height="111" viewBox="0 0 111 111" fill="none" xmlns="http://www.w3.org/2000/svg">
<rect width="111" height="111" rx="5" fill="url(#paint0_linear)"/>
<path d="M56 24.1667C38.98 24.1667 25.1667 37.98 25.1667 55C25.1667 72.02 38.98 85.8333 56 85.8333C73.02 85.8333 86.8334 72.02 86.8334 55C86.8334 37.98 73.02 24.1667 56 24.1667ZM56 33.4167C61.1184 33.4167 65.25 37.5483 65.25 42.6667C65.25 47.785 61.1184 51.9167 56 51.9167C50.8817 51.9167 46.75 47.785 46.75 42.6667C46.75 37.5483 50.8817 33.4167 56 33.4167ZM56 77.2C48.2917 77.2 41.4775 73.2533 37.5 67.2717C37.5925 61.1358 49.8334 57.775 56 57.775C62.1359 57.775 74.4075 61.1358 74.5 67.2717C70.5225 73.2533 63.7084 77.2 56 77.2Z" fill="white"/>
<defs>
<linearGradient id="paint0_linear" x1="55.5" y1="0" x2="55.5" y2="111" gradientUnits="userSpaceOnUse">
<stop stop-color="#FFC975"/>
<stop offset="1" stop-color="#FF9F65"/>
</linearGradient>
</defs>
</svg>
