<svg width="146" height="146" viewBox="0 0 146 146" fill="none" xmlns="http://www.w3.org/2000/svg">
<path d="M73 91.25C83.0983 91.25 91.1891 83.0983 91.1891 73L91.25 36.5C91.25 26.4017 83.0983 18.25 73 18.25C62.9016 18.25 54.75 26.4017 54.75 36.5V73C54.75 83.0983 62.9016 91.25 73 91.25ZM105.242 73C105.242 91.25 89.79 104.025 73 104.025C56.21 104.025 40.7583 91.25 40.7583 73H30.4166C30.4166 93.805 46.9633 110.899 66.9166 113.88V133.833H79.0833V113.88C99.0366 110.96 115.583 93.805 115.583 73H105.242Z" fill="#009BFF"/>
</svg>
